<svg width="24" height="24" viewBox="0 0 24 24" fill="none" xmlns="http://www.w3.org/2000/svg">
<path d="M9.86516 1.0313C11.3376 0.919106 12.8342 1.10831 14.227 1.6021C16.2483 2.31076 18.04 3.64848 19.3022 5.37789C20.0166 6.35162 20.5629 7.44821 20.913 8.60394C21.5216 10.6275 21.521 12.8294 20.9154 14.8536C20.8421 15.0756 20.7838 15.3041 20.6846 15.5167C20.7002 15.2703 20.7036 15.018 20.6295 14.7797C20.5271 14.4512 20.3382 14.1449 20.0694 13.9266C19.7057 13.6226 19.2188 13.4746 18.7475 13.5187C18.2679 13.5591 17.8032 13.7982 17.5067 14.1795C17.4669 14.2285 17.4274 14.2776 17.3891 14.3278C17.8488 13.1048 17.9757 11.7587 17.7513 10.4715C17.5728 9.41961 17.1471 8.41329 16.5316 7.54282C15.9498 6.72888 15.2016 6.0329 14.3407 5.52268C13.3058 4.90372 12.1103 4.55645 10.9049 4.52299C9.53953 4.47829 8.16316 4.83449 6.99474 5.54345C5.60395 6.37757 4.5111 7.69655 3.95415 9.21973C3.34384 10.8617 3.3649 12.7267 4.01097 14.3549C3.79494 14.0122 3.47277 13.7359 3.08916 13.5986C2.54288 13.395 1.89623 13.472 1.42148 13.8138C1.13306 14.0093 0.908371 14.2943 0.784924 14.6202C0.678495 14.8836 0.660901 15.1734 0.684552 15.4541C0.281909 14.3641 0.0419381 13.2107 0.00530795 12.048C-0.044013 10.481 0.250759 8.90275 0.87376 7.46321C1.58271 5.81687 2.71248 4.35282 4.12865 3.25334C5.76547 1.96811 7.78936 1.18244 9.86516 1.0313Z" fill="#19B957"/>
<path d="M1.42124 13.8139C1.89599 13.4721 2.54264 13.3951 3.08892 13.5988C3.47253 13.7361 3.7947 14.0124 4.01073 14.355C4.18148 14.7164 4.34213 15.0839 4.55586 15.4228C5.11252 16.3527 5.88377 17.1516 6.78972 17.7455C7.71297 18.3517 8.77928 18.7388 9.87703 18.8625C11.0374 18.997 12.2317 18.847 13.3177 18.4143C14.2675 18.0426 15.1379 17.4648 15.8434 16.7276C16.5146 16.0435 17.0355 15.2177 17.3888 14.3279C17.4272 14.2777 17.4667 14.2287 17.5065 14.1797C17.803 13.7984 18.2676 13.5593 18.7473 13.5189C19.2186 13.4747 19.7054 13.6227 20.0692 13.9267C20.338 14.145 20.5269 14.4514 20.6293 14.7799C20.7034 15.0181 20.6999 15.2705 20.6844 15.5168C20.6656 15.6192 20.6169 15.7124 20.5782 15.8084C20.0559 17.0734 19.2872 18.2358 18.3311 19.215C17.3271 20.2404 16.1194 21.0679 14.7921 21.6153C12.9863 22.3718 10.9687 22.606 9.03569 22.3009C7.79892 22.1097 6.59763 21.6923 5.50593 21.0805C3.52214 19.9753 1.90522 18.2228 0.972448 16.1513C0.872941 15.9203 0.768242 15.6913 0.68431 15.4542C0.660659 15.1736 0.678253 14.8837 0.784682 14.6204C0.908129 14.2944 1.13281 14.0095 1.42124 13.8139ZM22.0492 18.151C22.427 18.1054 22.8187 18.1827 23.1452 18.38C23.7397 18.7221 24.0843 19.4382 23.9819 20.1163C23.8997 20.7431 23.446 21.3052 22.8484 21.5129C22.2548 21.7307 21.5488 21.5913 21.0864 21.1593C20.734 20.838 20.526 20.3681 20.5208 19.8917C20.52 19.564 20.6074 19.2349 20.7847 18.9583C21.0561 18.5182 21.5344 18.209 22.0492 18.151Z" fill="#F7B516"/>
</svg>
