<svg width="128" height="128" viewBox="0 0 128 128" fill="none" xmlns="http://www.w3.org/2000/svg">
<path d="M92.1952 72.0828C99.6601 70.176 107.426 70.5837 114.866 72.6752C116.081 73.0171 117.454 73.3085 117.211 74.9772C117.018 76.3057 116.787 77.4586 116.517 78.4359C114.557 85.5437 111.225 92.1655 106.383 97.8578C98.5587 107.057 86.1459 110.63 74.465 108.316C72.5406 107.933 70.3552 107.394 68.7827 106.315C68.7206 106.272 68.6761 106.208 68.6571 106.135C68.6381 106.062 68.6457 105.984 68.6788 105.915C68.819 105.625 69.0021 105.345 69.2283 105.074C71.747 102.07 73.9543 99.6776 75.8501 97.8983C79.2465 94.7112 82.0184 92.3132 84.1657 90.7044C87.2583 88.3866 89.7543 86.6638 91.6534 85.5362C94.4489 83.8751 96.4949 82.5762 99.0398 81.2772C100.983 80.2863 103.61 79.07 106.92 77.6283C107.646 77.3127 108.327 77.0644 108.963 76.8838C108.997 76.8737 109.028 76.86 109.057 76.8432L109.604 76.5294C109.611 76.5244 109.616 76.5173 109.618 76.5091C109.621 76.5009 109.62 76.492 109.617 76.4841C109.614 76.4763 109.608 76.4698 109.6 76.4656C109.593 76.4614 109.584 76.4596 109.576 76.4609C108.692 76.6837 107.758 76.8686 106.851 77.1901C104.031 78.1954 101.205 79.0287 98.6523 80.0947C95.1444 81.5634 91.8559 83.1796 88.7869 84.9437C88.6822 85.0045 87.3672 85.8232 84.8418 87.3999C83.5808 88.1883 82.313 89.078 81.0385 90.0689C78.2937 92.206 76.5532 93.6224 75.8172 94.3179C73.7695 96.2491 71.9058 98.0993 70.2261 99.8684C70.0978 100.002 69.9626 100.094 69.8208 100.144C69.8009 100.152 69.7793 100.153 69.7585 100.15C69.7376 100.146 69.7181 100.136 69.7021 100.122C69.6861 100.108 69.6742 100.09 69.6675 100.07C69.6608 100.05 69.6596 100.028 69.664 100.008C70.5022 95.7587 72.1809 91.502 74.0167 87.5822C75.0498 85.3775 76.6156 82.9948 78.7138 80.434C80.3749 78.4066 82.3916 76.6382 84.7634 75.129C86.7705 73.8511 89.2478 72.8356 92.1952 72.0828Z" fill="#65E900"/>
<path d="M11.8139 51.9267C16.1211 51.3798 20.0231 51.6633 24.3126 52.1824C30.5164 52.9336 36.3902 54.6437 41.934 57.3125C42.9215 57.7869 44.0248 58.4176 45.2436 59.2043C46.8742 60.2559 47.9294 60.9656 48.4088 61.3336C53.9847 65.6181 57.8109 71.6498 59.3657 78.5475C59.8063 80.5023 60.083 82.16 60.1961 83.5206C60.7801 90.6107 59.8644 97.6012 57.4487 104.492C56.6359 106.814 54.7241 109.075 52.035 108.597C51.7261 108.543 51.5387 108.325 51.4729 107.943C51.0441 105.491 50.346 102.641 49.3787 99.3949C46.9478 91.2388 42.8634 83.3789 37.789 76.7497C35.5506 73.8276 32.7329 70.728 29.3364 67.4514C28.3371 66.4875 27.4408 65.689 26.6474 65.056C25.3408 64.0152 24.2164 62.9796 22.9199 62.025C22.2159 61.5068 20.8841 60.5496 18.9243 59.1536C18.9197 59.1499 18.9136 59.1484 18.9075 59.1494C18.9013 59.1503 18.8954 59.1535 18.8911 59.1585L18.8684 59.1813C18.8589 59.1922 18.8538 59.2064 18.8543 59.2206C18.8548 59.2348 18.8609 59.2481 18.8711 59.2574C19.7776 60.1335 20.5094 60.8146 21.0665 61.3007C25.7637 65.3876 29.9922 70.0749 33.6942 75.0304C34.5535 76.18 35.7242 77.8546 37.2064 80.0542C38.4657 81.9229 39.5302 83.654 40.3996 85.2476C43.1596 90.3119 45.4488 95.3687 46.8846 100.57C47.5277 102.906 48.1043 105.36 48.6141 107.931C48.6256 107.989 48.6229 108.049 48.6064 108.105C48.5899 108.162 48.56 108.214 48.5191 108.257C48.4782 108.3 48.4274 108.333 48.3712 108.352C48.3151 108.371 48.255 108.377 48.1962 108.369C42.3772 107.55 36.9583 105.63 31.9395 102.608C31.1073 102.107 29.5863 101.041 27.3767 99.41C25.7071 98.176 23.9513 96.5191 22.1095 94.4394C18.7418 90.6386 15.9766 86.4758 13.994 81.8141C11.5563 76.0846 10.2363 70.0738 10.0337 63.7822C9.92231 60.3047 10.087 56.7851 10.5275 53.2232C10.6221 52.4568 11.0509 52.0246 11.8139 51.9267Z" fill="#65E900"/>
<path d="M100.85 20.2871C103.094 20.0407 105.201 19.9529 107.171 20.0238C108.047 20.0559 108.638 20.5464 108.946 21.4951C109.195 22.2682 109.415 23.2567 109.604 24.4603C111.23 34.8472 111.052 45.2267 108.432 55.2895C107.343 59.4726 105.9 63.3588 104.104 66.9477C104.042 67.0723 103.946 67.1769 103.827 67.2499C103.709 67.3228 103.572 67.3612 103.433 67.3604C102.424 67.3553 101.268 67.3832 99.9666 67.444C96.3051 67.6162 92.5971 68.3209 88.8428 69.5582C82.2338 71.7334 76.9921 76.2534 73.4217 82.1736C72.4376 83.8043 71.6297 85.2382 70.9984 86.4756C70.3687 87.7079 69.7333 89.2257 69.0918 91.0286C67.2256 96.2651 66.1416 101.793 65.2705 107.009C65.1068 107.995 64.4966 108.528 63.4399 108.607C62.6887 108.663 62.1062 108.47 61.6926 108.03C61.1584 107.462 61.2824 106.609 61.3355 105.806C61.4976 103.396 61.7813 101.676 62.313 98.43C63.0896 93.6645 64.122 89.0544 65.41 84.5995C66.9293 79.3376 69.0182 74.0832 70.9781 69.4114C71.1773 68.9336 72.0349 67.1238 73.5508 63.9823C74.5788 61.8503 75.504 60.0745 76.3261 58.6548C79.2212 53.6597 81.8362 49.5084 84.1709 46.2014C87.012 42.1803 90.5771 37.8341 94.8666 33.1631C95.5216 32.4474 96.7312 31.2446 98.4952 29.5548C98.5025 29.548 98.5071 29.5388 98.5076 29.5288C98.5081 29.5189 98.5046 29.509 98.498 29.5016V29.4991C98.4878 29.4879 98.4735 29.4811 98.4584 29.4801C98.4433 29.4792 98.4284 29.4843 98.4168 29.4942C96.0925 31.3813 94.8003 32.4516 94.5402 32.7049C92.8614 34.3407 91.152 35.8068 89.5871 37.4629C85.7517 41.5228 82.9004 44.7826 81.0334 47.2422C73.8319 56.726 68.2855 67.1916 64.3944 78.6387C64.1412 79.3882 63.8021 80.1403 63.521 80.8897C63.5135 80.909 63.5014 80.9263 63.4859 80.9399C63.4703 80.9536 63.4516 80.9634 63.4315 80.9684C63.4114 80.9733 63.3903 80.9732 63.3702 80.9684C63.3501 80.9635 63.3314 80.954 63.3158 80.9404C63.2837 80.91 63.2584 80.8525 63.2399 80.7681C62.4498 76.9108 61.5787 73.7835 60.6266 71.3864C59.4744 68.4871 57.5171 65.2181 55.2432 62.729C53.5939 60.9227 52.0113 59.4438 50.4954 58.2925C49.9485 57.8772 50.2473 57.3152 50.4524 56.7707C51.2053 54.7585 52.1624 52.7049 53.3238 50.6099C56.8537 44.2508 61.4285 38.761 67.0483 34.1406C70.4464 31.3468 74.1215 28.9683 78.0734 27.005C80.3152 25.8909 82.2227 25.0359 83.796 24.44C89.2934 22.356 94.9225 20.9379 100.85 20.2871Z" fill="#65E900"/>
</svg>
