<svg width="24" height="24" viewBox="0 0 24 24" fill="none" xmlns="http://www.w3.org/2000/svg">
<path d="M4.32838 12.6272C6.93409 12.0676 6.57906 8.95364 6.50108 8.27304C6.37346 7.22378 5.13932 5.38975 3.46345 5.53481C1.35456 5.72405 1.04643 8.77041 1.04643 8.77041C0.761212 10.1785 1.72922 13.1872 4.32838 12.6272ZM7.09551 18.0436C7.01916 18.2623 6.84901 18.8224 6.99626 19.3099C7.28693 20.4039 8.2364 20.453 8.2364 20.453H9.60088V17.1176H8.13987C7.48326 17.3134 7.16641 17.8244 7.09551 18.0436ZM9.16459 7.40538C10.6038 7.40538 11.767 5.74914 11.767 3.70133C11.767 1.6557 10.6038 0 9.16459 0C7.72758 0 6.56161 1.6557 6.56161 3.70133C6.56161 5.74914 7.72813 7.40538 9.16459 7.40538ZM15.3631 7.65025C17.2866 7.90002 18.5234 5.8473 18.7694 4.2914C19.0203 2.73768 17.779 0.933103 16.4173 0.622796C15.0528 0.309762 13.3491 2.49555 13.1937 3.92056C13.0083 5.66243 13.4429 7.4032 15.3631 7.65025ZM20.0761 16.7959C20.0761 16.7959 17.1001 14.4934 15.3626 12.0049C13.0077 8.33576 9.6625 9.82894 8.54343 11.6951C7.42927 13.5608 5.69286 14.741 5.44636 15.0534C5.19604 15.361 1.85138 17.1667 2.59415 20.4645C3.33638 23.76 5.94427 23.6973 5.94427 23.6973C5.94427 23.6973 7.8661 23.8866 10.0955 23.3876C12.326 22.8929 14.2462 23.5108 14.2462 23.5108C14.2462 23.5108 19.456 25.2554 20.8816 21.8971C22.3055 18.5377 20.0761 16.7959 20.0761 16.7959ZM11.1622 21.794H7.77503C6.31238 21.5023 5.72994 20.5043 5.65632 20.3341C5.58433 20.1612 5.16877 19.359 5.38855 17.994C6.02062 15.9489 7.82302 15.8022 7.82302 15.8022H9.62596V13.5859L11.1617 13.6093V21.794H11.1622ZM17.4704 21.7706H13.5727C12.0621 21.3812 11.9917 20.3079 11.9917 20.3079V15.998L13.5727 15.9724V19.846C13.6692 20.2594 14.1824 20.3341 14.1824 20.3341H15.7885V15.998H17.4704V21.7706ZM22.9877 10.263C22.9877 9.51863 22.3693 7.27722 20.0761 7.27722C17.779 7.27722 17.472 9.39266 17.472 10.888C17.472 12.3152 17.5925 14.3074 20.4458 14.2441C23.3002 14.1809 22.9877 11.0113 22.9877 10.263Z" fill="#3C76F5"/>
</svg>
