<svg width="24" height="24" viewBox="0 0 24 24" fill="none" xmlns="http://www.w3.org/2000/svg">
<rect x="0.5" y="0.5" width="23" height="23" rx="11.5" stroke="#A1A1A1"/>
<path d="M15.6719 13.087C16.6497 12.8372 17.667 12.8906 18.6415 13.1646C18.8007 13.2094 18.9805 13.2476 18.9486 13.4661C18.9234 13.6402 18.8931 13.7912 18.8577 13.9192C18.601 14.8502 18.1645 15.7176 17.5303 16.4632C16.5054 17.6682 14.8795 18.1362 13.3494 17.8331C13.0974 17.783 12.8111 17.7124 12.6051 17.5711C12.597 17.5654 12.5912 17.5571 12.5887 17.5475C12.5862 17.5379 12.5872 17.5276 12.5915 17.5187C12.6099 17.4806 12.6339 17.4439 12.6635 17.4085C12.9934 17.0149 13.2825 16.7016 13.5309 16.4685C13.9758 16.0511 14.3388 15.7369 14.6201 15.5262C15.0252 15.2226 15.3522 14.997 15.6009 14.8492C15.9671 14.6317 16.2351 14.4615 16.5684 14.2914C16.823 14.1616 17.167 14.0022 17.6006 13.8134C17.6957 13.7721 17.7849 13.7395 17.8683 13.7159C17.8727 13.7146 17.8768 13.7128 17.8806 13.7106L17.9522 13.6695C17.9531 13.6688 17.9538 13.6679 17.9541 13.6668C17.9544 13.6657 17.9544 13.6646 17.9539 13.6635C17.9535 13.6625 17.9527 13.6617 17.9518 13.6611C17.9508 13.6606 17.9497 13.6603 17.9486 13.6605C17.8328 13.6897 17.7104 13.7139 17.5917 13.756C17.2222 13.8877 16.852 13.9968 16.5177 14.1365C16.0582 14.3289 15.6274 14.5406 15.2254 14.7716C15.2117 14.7796 15.0395 14.8868 14.7087 15.0934C14.5435 15.1966 14.3774 15.3132 14.2105 15.443C13.8509 15.7229 13.623 15.9084 13.5266 15.9996C13.2583 16.2525 13.0142 16.4949 12.7942 16.7266C12.7774 16.7441 12.7597 16.7561 12.7411 16.7628C12.7385 16.7637 12.7357 16.7639 12.7329 16.7634C12.7302 16.7629 12.7276 16.7617 12.7256 16.7598C12.7235 16.758 12.7219 16.7557 12.721 16.753C12.7201 16.7504 12.72 16.7476 12.7206 16.7448C12.8304 16.1883 13.0502 15.6307 13.2907 15.1172C13.426 14.8285 13.6311 14.5164 13.906 14.1809C14.1236 13.9153 14.3877 13.6837 14.6984 13.486C14.9613 13.3186 15.2858 13.1856 15.6719 13.087Z" fill="#A1A1A1"/>
<path d="M5.14287 10.4468C5.70706 10.3752 6.21819 10.4123 6.78005 10.4803C7.59268 10.5787 8.36208 10.8027 9.08825 11.1523C9.21761 11.2144 9.36212 11.297 9.52177 11.4001C9.73537 11.5378 9.87358 11.6308 9.93638 11.679C10.6668 12.2402 11.1679 13.0303 11.3716 13.9338C11.4293 14.1899 11.4656 14.407 11.4804 14.5852C11.5569 15.5139 11.4369 16.4296 11.1205 17.3323C11.014 17.6364 10.7636 17.9326 10.4114 17.8699C10.3709 17.8628 10.3464 17.8343 10.3377 17.7843C10.2816 17.463 10.1901 17.0898 10.0634 16.6646C9.745 15.5962 9.21 14.5667 8.54531 13.6983C8.2521 13.3156 7.88301 12.9095 7.43811 12.4803C7.30721 12.3541 7.18982 12.2495 7.08589 12.1666C6.91474 12.0303 6.76745 11.8946 6.59763 11.7696C6.50542 11.7017 6.33096 11.5763 6.07425 11.3934C6.07365 11.393 6.07285 11.3928 6.07205 11.3929C6.07124 11.393 6.07046 11.3934 6.06991 11.3941L6.06693 11.3971C6.06568 11.3985 6.06502 11.4003 6.06508 11.4022C6.06515 11.4041 6.06595 11.4058 6.06729 11.407C6.18602 11.5218 6.28189 11.611 6.35486 11.6747C6.97013 12.21 7.52402 12.824 8.00894 13.4731C8.12149 13.6237 8.27485 13.843 8.46899 14.1312C8.63395 14.3759 8.77338 14.6027 8.88726 14.8114C9.2488 15.4748 9.54865 16.1372 9.73672 16.8185C9.82097 17.1245 9.89649 17.4459 9.96326 17.7827C9.96478 17.7903 9.96442 17.7981 9.96226 17.8056C9.9601 17.813 9.95618 17.8198 9.95083 17.8254C9.94547 17.831 9.93882 17.8353 9.93146 17.8378C9.9241 17.8404 9.91624 17.8411 9.90852 17.84C9.14631 17.7328 8.4365 17.4813 7.7791 17.0855C7.67008 17.0198 7.47085 16.8801 7.18141 16.6666C6.96272 16.5049 6.73273 16.2879 6.49148 16.0155C6.05035 15.5176 5.68814 14.9723 5.42844 14.3617C5.10913 13.6112 4.93623 12.8239 4.90969 11.9997C4.8951 11.5442 4.91666 11.0832 4.97438 10.6166C4.98676 10.5162 5.04293 10.4596 5.14287 10.4468Z" fill="#A1A1A1"/>
<path d="M16.8056 6.30238C17.0995 6.2701 17.3754 6.2586 17.6335 6.26788C17.7483 6.27209 17.8258 6.33634 17.866 6.46061C17.8987 6.56188 17.9275 6.69136 17.9522 6.84901C18.1652 8.20958 18.142 9.56917 17.7987 10.8873C17.656 11.4352 17.4671 11.9443 17.2318 12.4144C17.2236 12.4307 17.2111 12.4444 17.1955 12.4539C17.18 12.4635 17.1621 12.4685 17.1439 12.4684C17.0117 12.4678 16.8603 12.4714 16.6898 12.4794C16.2102 12.5019 15.7245 12.5942 15.2328 12.7563C14.3671 13.0412 13.6805 13.6333 13.2128 14.4088C13.0839 14.6224 12.978 14.8102 12.8953 14.9723C12.8129 15.1337 12.7296 15.3325 12.6456 15.5687C12.4012 16.2546 12.2592 16.9787 12.1451 17.662C12.1236 17.7911 12.0437 17.8608 11.9053 17.8712C11.8069 17.8785 11.7306 17.8533 11.6764 17.7956C11.6064 17.7213 11.6227 17.6095 11.6296 17.5044C11.6509 17.1886 11.688 16.9634 11.7577 16.5382C11.8594 15.914 11.9946 15.3101 12.1633 14.7265C12.3623 14.0373 12.636 13.349 12.8927 12.7371C12.9188 12.6745 13.0311 12.4374 13.2297 12.0259C13.3643 11.7467 13.4855 11.5141 13.5932 11.3281C13.9724 10.6738 14.315 10.13 14.6208 9.69684C14.9929 9.17013 15.4599 8.60083 16.0218 7.98899C16.1076 7.89523 16.266 7.73768 16.4971 7.51634C16.4981 7.51545 16.4987 7.51424 16.4987 7.51293C16.4988 7.51163 16.4983 7.51034 16.4975 7.50937V7.50905C16.4961 7.50758 16.4943 7.50668 16.4923 7.50655C16.4903 7.50643 16.4884 7.50711 16.4868 7.5084C16.1824 7.75559 16.0131 7.89578 15.9791 7.92897C15.7591 8.14324 15.5352 8.33528 15.3303 8.55221C14.8279 9.08401 14.4544 9.511 14.2098 9.83318C13.2665 11.0754 12.54 12.4463 12.0303 13.9458C11.9971 14.0439 11.9527 14.1424 11.9159 14.2406C11.9149 14.2431 11.9133 14.2454 11.9113 14.2472C11.9093 14.249 11.9068 14.2503 11.9042 14.2509C11.9015 14.2516 11.8988 14.2516 11.8961 14.2509C11.8935 14.2503 11.8911 14.249 11.889 14.2473C11.8848 14.2433 11.8815 14.2357 11.8791 14.2247C11.7756 13.7194 11.6615 13.3098 11.5368 12.9958C11.3858 12.616 11.1295 12.1878 10.8316 11.8618C10.6156 11.6252 10.4083 11.4314 10.2097 11.2806C10.1381 11.2262 10.1772 11.1526 10.2041 11.0813C10.3027 10.8177 10.4281 10.5487 10.5802 10.2743C11.0426 9.44134 11.6418 8.72225 12.3779 8.11703C12.8231 7.75107 13.3044 7.43952 13.8221 7.18235C14.1157 7.03641 14.3656 6.92441 14.5717 6.84636C15.2918 6.57338 16.0291 6.38762 16.8056 6.30238Z" fill="#A1A1A1"/>
</svg>
