<svg width="24" height="24" viewBox="0 0 24 24" fill="none" xmlns="http://www.w3.org/2000/svg">
<path d="M8.80186 0.440191C10.9529 -0.1428 13.2808 -0.178985 15.4077 0.526635C15.6188 0.576892 15.8239 0.645243 16.0229 0.727666C16.3667 0.836223 16.7225 0.928697 17.024 1.13375C19.7339 2.31782 21.9372 4.62968 23.055 7.36773C24.1526 9.92083 24.3014 12.872 23.4631 15.5236C22.4358 18.9672 19.75 21.8601 16.4029 23.1648C11.8475 25.0122 6.22464 23.7055 3.01819 19.9603C1.75572 18.531 0.804838 16.8122 0.380662 14.9466C-0.226453 12.6026 -0.119906 10.0274 0.790765 7.77381C0.937518 7.28329 1.17272 6.82695 1.4019 6.37262C2.91768 3.49788 5.65773 1.28251 8.80186 0.440191ZM10.5267 1.05133C7.64392 1.42524 4.93402 2.9953 3.18907 5.32123C1.3637 7.69139 0.591744 10.8275 1.07824 13.7766C1.54664 16.8162 3.37603 19.5985 5.95124 21.269C8.14248 22.7145 10.8644 23.3196 13.4638 22.9637C16.4792 22.5757 19.3017 20.867 21.0346 18.3661C22.7474 15.9618 23.4088 12.8539 22.8539 9.95902C22.271 6.73649 20.1461 3.85169 17.2713 2.29772C15.2308 1.17597 12.8305 0.745759 10.5267 1.05133Z" fill="#DE5833"/>
<path d="M8.75559 2.24958C11.5801 1.30273 14.8107 1.66458 17.3457 3.23263C19.8646 4.75242 21.6598 7.40403 22.1282 10.3089C22.5122 12.5967 22.1081 15.0151 20.9562 17.0334C19.5892 19.488 17.1728 21.3496 14.4307 21.9929C14.2417 21.625 14.0588 21.2531 13.902 20.8691C13.8075 20.841 13.6165 20.7827 13.52 20.7545L13.5763 20.4972C14.3563 20.8269 15.1605 21.1144 16.0088 21.2028C16.238 20.0931 16.1857 18.9412 15.8681 17.8516C15.1142 18.0808 14.4629 18.5291 13.8216 18.9694C13.51 18.9191 13.2004 18.8708 12.8888 18.8407C12.3963 17.528 11.9098 16.1408 12.1269 14.7155C14.0689 15.596 16.4229 16.2273 18.4172 15.1297C18.6584 14.9507 19.2354 14.6894 18.9358 14.3275C18.5257 14.1748 18.0915 14.3557 17.6814 14.416C16.4993 14.6934 15.2368 14.9387 14.0427 14.5949C13.6246 14.4864 13.0999 14.0722 13.3612 13.5898C13.4979 13.0912 14.0769 13.25 14.4528 13.252C15.7294 13.439 16.9054 12.8118 18.0774 12.4137C18.7448 12.1182 19.5409 11.9252 19.9993 11.3161C19.9591 10.8256 19.2555 10.8095 18.8695 10.7633C17.7115 10.9502 16.624 11.4427 15.468 11.6558C15.6811 9.8164 15.0418 7.93073 13.8537 6.52954C13.3954 5.95258 12.6496 5.82593 12.0344 5.51232C10.6976 4.19959 8.65307 3.66484 6.83977 4.11314C7.18956 4.24784 7.53936 4.38454 7.88915 4.52325C7.67606 4.5916 7.25188 4.7283 7.0408 4.79665C6.94631 4.95144 6.85183 5.10825 6.75734 5.26304C7.76853 5.22083 8.79379 5.24294 9.77281 5.53443C8.85008 5.75557 7.80673 5.94052 7.16946 6.71851C6.16631 7.77794 6.12611 9.35805 6.34322 10.717C7.04281 14.3959 7.8992 18.0466 8.59075 21.7255C6.0477 20.8229 3.88059 18.909 2.72265 16.4645C1.45414 13.8531 1.37574 10.7009 2.50955 8.02722C3.63533 5.32536 5.97131 3.15825 8.75559 2.24958Z" fill="#DE5833"/>
<path d="M10.5268 1.05139C12.8306 0.74582 15.231 1.17603 17.2714 2.29778C20.1462 3.85175 22.2711 6.73655 22.8541 9.95908C23.4089 12.8539 22.7475 15.9619 21.0347 18.3662C19.3018 20.867 16.4794 22.5758 13.4639 22.9638C10.8646 23.3196 8.1426 22.7145 5.95136 21.2691C3.37615 19.5985 1.54676 16.8163 1.07836 13.7767C0.591865 10.8275 1.36382 7.69145 3.18919 5.32129C4.93414 2.99536 7.64404 1.42531 10.5268 1.05139ZM8.75574 2.24953C5.97146 3.15819 3.63548 5.32531 2.5097 8.02717C1.37589 10.7009 1.45429 13.8531 2.7228 16.4645C3.88074 18.909 6.04785 20.8228 8.5909 21.7254C7.89935 18.0466 7.04296 14.3958 6.34337 10.717C6.12626 9.358 6.16646 7.77789 7.16961 6.71846C7.80688 5.94047 8.85023 5.75552 9.77296 5.53438C8.79394 5.24289 7.76868 5.22077 6.75749 5.26299C6.85198 5.1082 6.94646 4.95139 7.04095 4.7966C7.25203 4.72825 7.67621 4.59155 7.8893 4.5232C7.5395 4.38448 7.18971 4.24778 6.83992 4.11309C8.65322 3.66479 10.6977 4.19954 12.0346 5.51227C12.6497 5.82588 13.3955 5.95253 13.8539 6.52949C15.042 7.93068 15.6813 9.81635 15.4682 11.6558C14.9375 11.7865 14.3927 11.8488 13.8479 11.8809C12.909 11.901 11.9823 12.4076 11.4455 13.1736C11.3108 13.7706 11.6787 14.3516 12.127 14.7155C11.9099 16.1408 12.3964 17.5279 12.8889 18.8406C12.5311 18.8788 12.1934 19.0095 11.8536 19.1221C11.0797 18.7904 10.3157 18.3381 9.4493 18.3361C9.41915 19.494 9.40708 20.67 9.69255 21.7998C10.4163 21.7455 11.0415 21.3415 11.6727 21.0218C12.2859 21.1143 12.9191 21.1063 13.5001 20.857L13.5202 20.7545C13.6167 20.7826 13.8077 20.8409 13.9021 20.869C14.0589 21.253 14.2419 21.6249 14.4309 21.9928C17.1729 21.3495 19.5893 19.488 20.9563 17.0334C22.1082 15.015 22.5123 12.5966 22.1283 10.3089C21.6599 7.40397 19.8647 4.75237 17.3458 3.23258C14.8108 1.66453 11.5802 1.30268 8.75574 2.24953ZM12.9372 8.04928C13.4418 7.82011 13.9886 7.85227 14.5233 7.92666C14.0429 7.47031 13.3453 7.53464 12.9372 8.04928ZM7.56162 8.85542C7.90136 8.18398 8.62507 7.99501 9.32466 8.01109C8.62306 7.68542 7.5576 7.92465 7.56162 8.85542ZM13.5041 10.2043C13.9504 10.7511 14.8329 10.5742 14.8892 9.80831C14.7002 9.79223 14.3223 9.75805 14.1333 9.73996L14.8792 9.60326C14.5776 9.44444 14.2258 9.0846 13.8639 9.32583C13.5262 9.48264 13.5282 9.88872 13.5041 10.2043ZM8.88641 9.62336C8.43208 9.7279 8.1627 10.3189 8.43208 10.717C8.66729 11.1713 9.37291 11.2316 9.67245 10.8074C10.1087 10.2807 9.55987 9.3982 8.88641 9.62336Z" fill="white"/>
<path d="M9.2863 9.93706C9.57378 9.87072 9.66223 9.97525 9.55166 10.2487C9.26419 10.313 9.17574 10.2105 9.2863 9.93706Z" fill="white"/>
<path d="M12.9371 8.04928C13.3452 7.53464 14.0428 7.47031 14.5232 7.92665C13.9885 7.85227 13.4417 7.82011 12.9371 8.04928ZM7.56153 8.85542C7.55751 7.92464 8.62298 7.68542 9.32458 8.01109C8.62499 7.995 7.90128 8.18397 7.56153 8.85542ZM13.504 10.2043C13.5281 9.88872 13.5261 9.48264 13.8639 9.32583C14.2257 9.08459 14.5775 9.44444 14.8791 9.60325L14.1332 9.73996C14.3222 9.75805 14.7002 9.79222 14.8891 9.80831C14.8328 10.5742 13.9503 10.7511 13.504 10.2043ZM8.88633 9.62336C9.55979 9.3982 10.1086 10.2807 9.67236 10.8074C9.37283 11.2316 8.66721 11.1713 8.432 10.717C8.16262 10.3189 8.432 9.72789 8.88633 9.62336ZM9.28638 9.93697C9.17582 10.2104 9.26427 10.3129 9.55174 10.2486C9.66231 9.97516 9.57386 9.87063 9.28638 9.93697Z" fill="#2E4F8E"/>
<path d="M15.4681 11.6559C16.624 11.4428 17.7116 10.9503 18.8695 10.7633C19.2555 10.8095 19.9591 10.8256 19.9993 11.3161C19.541 11.9253 18.7449 12.1183 18.0774 12.4138C16.9054 12.8118 15.7294 13.439 14.4528 13.2521C14.0769 13.2501 13.498 13.0912 13.3613 13.5898C13.0999 14.0723 13.6246 14.4864 14.0427 14.595C15.2369 14.9387 16.4993 14.6935 17.6814 14.416C18.0915 14.3557 18.5257 14.1748 18.9358 14.3276C19.2354 14.6894 18.6584 14.9508 18.4172 15.1297C16.423 16.2273 14.0689 15.5961 12.1269 14.7156C11.6786 14.3517 11.3107 13.7707 11.4454 13.1737C11.9822 12.4077 12.9089 11.9011 13.8477 11.881C14.3925 11.8489 14.9373 11.7866 15.4681 11.6559Z" fill="#FDD20A"/>
<path d="M13.8217 18.9693C14.463 18.529 15.1144 18.0807 15.8682 17.8516C16.1859 18.9412 16.2381 20.0931 16.0089 21.2028C15.1606 21.1143 14.3565 20.8268 13.5765 20.4971L13.5202 20.7545L13.5001 20.857C12.9191 21.1063 12.2858 21.1143 11.6727 21.0218C11.0415 21.3415 10.4163 21.7455 9.69254 21.7998C9.40708 20.67 9.41914 19.494 9.44929 18.336C10.3157 18.3381 11.0797 18.7904 11.8536 19.1221C12.1934 19.0095 12.5311 18.8788 12.8889 18.8406C13.2005 18.8708 13.5101 18.919 13.8217 18.9693Z" fill="#65BC46"/>
</svg>
