<svg width="72" height="72" viewBox="0 0 72 72" fill="none" xmlns="http://www.w3.org/2000/svg">
<mask id="path-1-inside-1_69_711" fill="white">
<path d="M2.01742e-09 36C0.000156948 13.5 6.42873 1.75685e-05 36 0C65.5713 -1.75684e-05 72 11.8929 72 36C72 61.7143 61.0716 72 36 72C13.8214 72 -0.000192817 63.6429 2.01742e-09 36Z"/>
</mask>
<path d="M2.01742e-09 36C0.000156948 13.5 6.42873 1.75685e-05 36 0C65.5713 -1.75684e-05 72 11.8929 72 36C72 61.7143 61.0716 72 36 72C13.8214 72 -0.000192817 63.6429 2.01742e-09 36Z" fill="white" fill-opacity="0.21"/>
<path d="M2.01742e-09 36L2 36L2.01742e-09 36ZM2.01742e-09 36L2 36C2.00008 24.8377 3.62006 16.4749 8.42935 10.8641C13.1776 5.32445 21.4603 2.00001 36 2V0V-2C20.9684 -1.99999 11.2512 1.42556 5.39232 8.26092C-0.405535 15.0251 -1.99992 24.6623 -2 36L2.01742e-09 36ZM36 0V2C50.6074 1.99999 58.8684 4.95387 63.5922 10.286C68.3682 15.6771 70 24.0004 70 36H72H74C74 23.8924 72.4175 14.2158 66.5863 7.63358C60.7029 0.992538 50.9638 -2.00001 36 -2V0ZM72 36H70C70 48.6317 67.3074 56.9817 61.9974 62.2189C56.6818 67.4618 48.3244 70 36 70V72V74C48.7472 74 58.3898 71.3954 64.8063 65.0668C71.2284 58.7326 74 49.0825 74 36H72ZM36 72V70C25.0964 70 16.6973 67.9333 11.0129 62.8723C5.37666 57.8543 1.99991 49.5174 2 36L2.01742e-09 36L-2 36C-2.0001 50.1255 1.53386 59.7886 8.35304 65.8598C15.124 71.8881 24.725 74 36 74V72Z" fill="black" fill-opacity="0.08" mask="url(#path-1-inside-1_69_711)"/>
</svg>
