<svg width="24" height="24" viewBox="0 0 24 24" fill="none" xmlns="http://www.w3.org/2000/svg">
<g clip-path="url(#clip0_17874_5656)">
<path d="M5.01788 11.9999C5.01788 11.2379 5.14788 10.5069 5.37788 9.82188L1.33988 6.80188C0.528575 8.41435 0.107266 10.1948 0.109875 11.9999C0.109875 13.8679 0.551875 15.6299 1.33788 17.1939L5.37388 14.1689C5.13854 13.4699 5.01831 12.7374 5.01788 11.9999Z" fill="#FBBC05"/>
<path d="M12.1101 5.06697C13.8001 5.06697 15.3271 5.65297 16.5271 6.61297L20.0181 3.19997C17.8911 1.38697 15.1641 0.266968 12.1101 0.266968C7.36809 0.266968 3.29209 2.92197 1.34009 6.80197L5.38009 9.82197C6.31009 7.05597 8.96209 5.06697 12.1101 5.06697Z" fill="#EA4335"/>
<path d="M12.1101 18.9331C8.96109 18.9331 6.30909 16.9441 5.37809 14.1781L1.34009 17.1981C3.29109 21.0781 7.36709 23.7331 12.1101 23.7331C15.0361 23.7331 17.8301 22.7161 19.9281 20.8091L16.0941 17.9071C15.0131 18.5741 13.6511 18.9331 12.1091 18.9331" fill="#34A853"/>
<path d="M23.5639 12.0001C23.5639 11.3071 23.4539 10.5601 23.2909 9.86707H12.1089V14.4001H18.5449C18.2239 15.9461 17.3479 17.1341 16.0949 17.9071L19.9279 20.8091C22.1309 18.8071 23.5639 15.8251 23.5639 12.0001Z" fill="#4285F4"/>
</g>
<defs>
<clipPath id="clip0_17874_5656">
<rect width="24" height="24" fill="white"/>
</clipPath>
</defs>
</svg>
