<svg width="36" height="36" viewBox="0 0 36 36" fill="none" xmlns="http://www.w3.org/2000/svg">
<path d="M1.00871e-09 18C7.8474e-05 6.75 3.21436 8.78424e-06 18 0C32.7856 -8.78422e-06 36 5.94643 36 18C36 30.8571 30.5358 36 18 36C6.91071 36 -9.64087e-05 31.8214 1.00871e-09 18Z" fill="#47A141"/>
<path d="M21 26.9999H15V15.9999H21V26.9999ZM23 26.9999V15.9999H28V25.9999C28 26.5522 27.5523 26.9999 27 26.9999H23ZM13 26.9999H9C8.44772 26.9999 8 26.5522 8 25.9999V15.9999H13V26.9999ZM28 13.9999H8V9.99988C8 9.4476 8.44772 8.99988 9 8.99988H27C27.5523 8.99988 28 9.4476 28 9.99988V13.9999Z" fill="#F8F9FA"/>
</svg>
