<svg width="36" height="36" viewBox="0 0 36 36" fill="none" xmlns="http://www.w3.org/2000/svg">
<path d="M1.00871e-09 18C7.8474e-05 6.75 3.21436 8.78424e-06 18 0C32.7856 -8.78422e-06 36 5.94643 36 18C36 30.8571 30.5358 36 18 36C6.91071 36 -9.64087e-05 31.8214 1.00871e-09 18Z" fill="#47A141"/>
<path d="M26 21.7251C26.5522 21.7251 26.9998 22.173 27 22.7251V22.9292C27 23.4815 26.5523 23.9302 26 23.9302H10C9.44788 23.9302 9.00026 23.4822 9 22.9302V22.7251C9.0002 22.173 9.44784 21.7251 10 21.7251H26ZM26 12.0698C26.5523 12.0698 27 12.5175 27 13.0698V17.8921C26.9998 18.4442 26.5522 18.8921 26 18.8921H10C9.44784 18.8921 9.0002 18.4442 9 17.8921V13.0698C9 12.5175 9.44772 12.0698 10 12.0698H26Z" fill="#F8F9FA"/>
</svg>
