<svg width="36" height="36" viewBox="0 0 36 36" fill="none" xmlns="http://www.w3.org/2000/svg">
<mask id="path-1-inside-1_84_474" fill="white">
<path d="M1.00871e-09 18C7.8474e-05 6.75 3.21436 8.78424e-06 18 0C32.7856 -8.78422e-06 36 5.94643 36 18C36 30.8571 30.5358 36 18 36C6.91071 36 -9.64087e-05 31.8214 1.00871e-09 18Z"/>
</mask>
<path d="M1.00871e-09 18C7.8474e-05 6.75 3.21436 8.78424e-06 18 0C32.7856 -8.78422e-06 36 5.94643 36 18C36 30.8571 30.5358 36 18 36C6.91071 36 -9.64087e-05 31.8214 1.00871e-09 18Z" fill="#232128"/>
<path d="M1.00871e-09 18L1 18L1.00871e-09 18ZM1.00871e-09 18L1 18C1.00004 12.4188 1.81003 8.23746 4.21467 5.43204C6.5888 2.66223 10.7301 1 18 1V0V-1C10.4842 -0.999996 5.6256 0.712782 2.69616 4.13046C-0.202768 7.51254 -0.99996 12.3312 -1 18L1.00871e-09 18ZM18 0V1C25.3037 0.999996 29.4342 2.47694 31.7961 5.14302C34.1841 7.83854 35 12.0002 35 18H36H37C37 11.9462 36.2087 7.10788 33.2931 3.81679C30.3514 0.496269 25.4819 -1 18 -1V0ZM36 18H35C35 24.3159 33.6537 28.4908 30.9987 31.1095C28.3409 33.7309 24.1622 35 18 35V36V37C24.3736 37 29.1949 35.6977 32.4031 32.5334C35.6142 29.3663 37 24.5413 37 18H36ZM18 36V35C12.5482 35 8.34866 33.9666 5.50644 31.4362C2.68833 28.9271 0.999953 24.7587 1 18L1.00871e-09 18L-1 18C-1.00005 25.0627 0.766929 29.8943 4.17652 32.9299C7.562 35.9441 12.3625 37 18 37V36Z" fill="white" fill-opacity="0.09" mask="url(#path-1-inside-1_84_474)"/>
<path d="M17.9999 22.9057C15.2887 22.9057 13.0908 20.7078 13.0908 17.9966C13.0908 15.2854 15.2887 13.0875 17.9999 13.0875C20.7111 13.0875 22.909 15.2854 22.909 17.9966C22.909 20.7078 20.7111 22.9057 17.9999 22.9057ZM17.1817 8.99658H18.8181V11.4511H17.1817V8.99658ZM17.1817 24.542H18.8181V26.9966H17.1817V24.542ZM11.0574 12.2112L12.2145 11.0541L13.9501 12.7897L12.793 13.9468L11.0574 12.2112ZM22.0496 23.2035L23.2068 22.0463L24.9424 23.782L23.7853 24.9391L22.0496 23.2035ZM23.7853 11.0541L24.9424 12.2112L23.2068 13.9468L22.0496 12.7897L23.7853 11.0541ZM12.793 22.0463L13.9501 23.2035L12.2145 24.9391L11.0574 23.782L12.793 22.0463ZM26.9999 17.1784V18.8148H24.5453V17.1784H26.9999ZM11.4544 17.1784V18.8148H8.99988V17.1784H11.4544Z" fill="white"/>
</svg>
