<svg width="24" height="24" viewBox="0 0 24 24" fill="none" xmlns="http://www.w3.org/2000/svg">
<g clip-path="url(#clip0_15_3364)">
<path d="M10.2957 20.9323C8.60223 20.9293 6.93559 20.5088 5.4433 19.7082C3.95102 18.9075 2.67912 17.7514 1.74018 16.342C0.80124 14.9326 0.224212 13.3135 0.0601687 11.628C-0.103875 9.94242 0.150126 8.24244 0.799689 6.67846C1.44925 5.11449 2.47435 3.73476 3.78424 2.66139C5.09414 1.58802 6.64844 0.854115 8.30958 0.524628C9.97072 0.195141 11.6875 0.280235 13.3079 0.772378C14.9283 1.26452 16.4024 2.14853 17.5997 3.34618C18.5586 4.30188 19.3193 5.43743 19.8384 6.68774C20.3575 7.93804 20.6247 9.27851 20.6247 10.6323C20.6247 11.9861 20.3575 13.3265 19.8384 14.5768C19.3193 15.8271 18.5586 16.9627 17.5997 17.9184C15.5864 19.9275 12.9409 20.9323 10.2957 20.9323ZM10.2957 2.62654C8.44137 2.62867 6.64509 3.27362 5.21289 4.45153C3.78069 5.62944 2.80115 7.26746 2.44115 9.08655C2.08115 10.9056 2.36294 12.7933 3.23853 14.4279C4.11412 16.0625 5.52934 17.3431 7.24312 18.0513C8.9569 18.7596 10.8632 18.8518 12.6374 18.3122C14.4115 17.7727 15.9437 16.6347 16.973 15.0923C18.0022 13.5498 18.4649 11.6981 18.2822 9.85279C18.0994 8.00745 17.2825 6.28254 15.9707 4.9719C15.2265 4.22567 14.3418 3.63421 13.3678 3.23167C12.3938 2.82913 11.3497 2.62346 10.2957 2.62654ZM23.6407 23.3056C23.4027 23.5426 23.0804 23.6757 22.7445 23.6757C22.4086 23.6757 22.0864 23.5426 21.8484 23.3056L19.196 20.6607C19.0784 20.5434 18.9851 20.4041 18.9214 20.2506C18.8577 20.0972 18.825 19.9328 18.825 19.7667C18.825 19.6006 18.8577 19.4361 18.9214 19.2827C18.9851 19.1292 19.0784 18.9899 19.196 18.8726C19.4342 18.6354 19.7566 18.5023 20.0927 18.5023C20.4289 18.5023 20.7513 18.6354 20.9895 18.8726L23.6407 21.5175C23.7583 21.6348 23.8516 21.7741 23.9153 21.9275C23.9789 22.081 24.0117 22.2454 24.0117 22.4115C24.0117 22.5776 23.9789 22.7421 23.9153 22.8955C23.8516 23.0489 23.7583 23.1883 23.6407 23.3056Z" fill="#19B957"/>
<path d="M8.38407 5.88661C8.56108 5.96145 8.71533 6.08145 8.83139 6.23462C8.94783 6.3891 9.02114 6.57175 9.04382 6.76386C9.06649 6.95598 9.03772 7.15067 8.96045 7.32801C8.88317 7.50535 8.76016 7.65898 8.60402 7.77318C8.44787 7.88737 8.26419 7.95803 8.07176 7.97793C7.81769 8.00796 7.57543 8.10213 7.36779 8.25159C7.16014 8.40105 6.99393 8.60088 6.8848 8.83228L6.83609 8.93393C6.72462 9.17083 6.67595 9.43242 6.69474 9.69356C6.71166 9.93136 6.6507 10.1682 6.52108 10.3683C6.39147 10.5684 6.20025 10.7208 5.97631 10.8026C5.88294 10.8359 5.78555 10.8565 5.68672 10.864C5.39769 10.8865 5.11154 10.7933 4.89121 10.6049C4.67088 10.4165 4.5344 10.1483 4.51178 9.85926C4.46405 9.22146 4.58248 8.58217 4.85551 8.00379L4.90242 7.90455C5.17166 7.33628 5.58091 6.84576 6.09174 6.47906C6.60258 6.11236 7.19823 5.88152 7.82276 5.8082C8.0135 5.78474 8.20706 5.81178 8.38407 5.88661Z" fill="#F7B516"/>
</g>
<defs>
<clipPath id="clip0_15_3364">
<rect width="24" height="24" fill="white"/>
</clipPath>
</defs>
</svg>
