<svg width="36" height="36" viewBox="0 0 36 36" fill="none" xmlns="http://www.w3.org/2000/svg">
<mask id="path-1-inside-1_84_457" fill="white">
<path d="M1.00871e-09 18C7.8474e-05 6.75 3.21436 8.78424e-06 18 0C32.7856 -8.78422e-06 36 5.94643 36 18C36 30.8571 30.5358 36 18 36C6.91071 36 -9.64087e-05 31.8214 1.00871e-09 18Z"/>
</mask>
<path d="M1.00871e-09 18C7.8474e-05 6.75 3.21436 8.78424e-06 18 0C32.7856 -8.78422e-06 36 5.94643 36 18C36 30.8571 30.5358 36 18 36C6.91071 36 -9.64087e-05 31.8214 1.00871e-09 18Z" fill="#577F98"/>
<path d="M1.00871e-09 18L1 18L1.00871e-09 18ZM1.00871e-09 18L1 18C1.00004 12.4188 1.81003 8.23746 4.21467 5.43204C6.5888 2.66223 10.7301 1 18 1V0V-1C10.4842 -0.999996 5.6256 0.712782 2.69616 4.13046C-0.202768 7.51254 -0.99996 12.3312 -1 18L1.00871e-09 18ZM18 0V1C25.3037 0.999996 29.4342 2.47694 31.7961 5.14302C34.1841 7.83854 35 12.0002 35 18H36H37C37 11.9462 36.2087 7.10788 33.2931 3.81679C30.3514 0.496269 25.4819 -1 18 -1V0ZM36 18H35C35 24.3159 33.6537 28.4908 30.9987 31.1095C28.3409 33.7309 24.1622 35 18 35V36V37C24.3736 37 29.1949 35.6977 32.4031 32.5334C35.6142 29.3663 37 24.5413 37 18H36ZM18 36V35C12.5482 35 8.34866 33.9666 5.50644 31.4362C2.68833 28.9271 0.999953 24.7587 1 18L1.00871e-09 18L-1 18C-1.00005 25.0627 0.766929 29.8943 4.17652 32.9299C7.562 35.9441 12.3625 37 18 37V36Z" fill="white" fill-opacity="0.09" mask="url(#path-1-inside-1_84_457)"/>
<path d="M12.7535 23.3999C13.1242 22.3512 14.1243 21.5999 15.2999 21.5999C16.4755 21.5999 17.4756 22.3512 17.8462 23.3999H26.9999V25.1999H17.8462C17.4756 26.2486 16.4755 26.9999 15.2999 26.9999C14.1243 26.9999 13.1242 26.2486 12.7535 25.1999H8.99988V23.3999H12.7535ZM18.1535 17.0999C18.5241 16.0512 19.5243 15.2999 20.6999 15.2999C21.8755 15.2999 22.8756 16.0512 23.2462 17.0999H26.9999V18.8999H23.2462C22.8756 19.9486 21.8755 20.6999 20.6999 20.6999C19.5243 20.6999 18.5241 19.9486 18.1535 18.8999H8.99988V17.0999H18.1535ZM12.7535 10.7999C13.1242 9.75121 14.1243 8.99988 15.2999 8.99988C16.4755 8.99988 17.4756 9.75121 17.8462 10.7999H26.9999V12.5999H17.8462C17.4756 13.6485 16.4755 14.3999 15.2999 14.3999C14.1243 14.3999 13.1242 13.6485 12.7535 12.5999H8.99988V10.7999H12.7535Z" fill="white"/>
</svg>
