<svg width="24" height="24" viewBox="0 0 24 24" fill="none" xmlns="http://www.w3.org/2000/svg">
<g clip-path="url(#clip0_17924_1323)">
<path d="M23.7906 11.9102C23.7906 5.32668 18.4639 0 11.8804 0C5.35671 0 0.0300293 5.32668 0.0300293 11.9102C0.0300293 18.4938 5.35671 23.8204 11.9403 23.8204C13.4964 23.8204 14.9926 23.5212 16.429 22.9227C18.2245 22.2045 19.8405 21.0075 21.0974 19.4514C22.7732 17.4165 23.7906 14.783 23.7906 11.9102ZM15.8904 22.0249C14.5737 22.4439 13.3168 22.7431 11.9403 22.7431C5.95522 22.7431 1.10734 17.8953 1.10734 11.9102C1.10734 5.92519 5.95522 1.07731 11.9403 1.07731C17.9253 1.07731 22.7732 5.92519 22.7732 11.9102C22.7732 14.5436 21.8156 16.9975 20.1996 18.9127C19.0625 20.2893 17.5662 21.3666 15.8904 22.0249Z" fill="#FA4D23"/>
<path d="M11.7009 16.399C11.7009 16.399 7.39163 16.4588 4.99761 14.2444L4.81806 17.2967C4.81806 17.2967 19.0624 22.4439 19.1821 14.1845C19.1821 14.1845 19.4814 12.2095 14.3343 10.8329C14.3343 10.8329 12.2994 10.3541 10.025 9.03738C10.025 9.03738 8.76819 7.60097 12.3592 7.90022C16.6086 8.25933 18.823 9.33663 18.823 9.33663V6.64337C18.823 6.64337 9.12729 2.99249 5.35671 7.18202C5.35671 7.18202 4.09986 9.09723 5.41656 10.2942C6.73327 11.4912 9.36669 12.9875 12.838 13.8853C12.838 13.8254 17.3268 15.9202 11.7009 16.399Z" fill="#FA4D23"/>
</g>
<defs>
<clipPath id="clip0_17924_1323">
<rect width="24" height="24" fill="white"/>
</clipPath>
</defs>
</svg>
