<svg width="36" height="36" viewBox="0 0 36 36" fill="none" xmlns="http://www.w3.org/2000/svg">
<path d="M1.00871e-09 18C7.8474e-05 6.75 3.21436 8.78424e-06 18 0C32.7856 -8.78422e-06 36 5.94643 36 18C36 30.8571 30.5358 36 18 36C6.91071 36 -9.64087e-05 31.8214 1.00871e-09 18Z" fill="#FF6719"/>
<path d="M24.8185 20.3182L21.3364 16.8362C20.985 16.4846 20.4151 16.4846 20.0637 16.8362L13.3785 23.5213C11.8022 22.2005 10.7999 20.2172 10.7999 17.9999C10.7999 14.0234 14.0234 10.7999 17.9999 10.7999C21.9763 10.7999 25.1999 14.0234 25.1999 17.9999C25.1999 18.811 25.0658 19.5907 24.8185 20.3182ZM17.9999 26.9999C22.9704 26.9999 26.9999 22.9704 26.9999 17.9999C26.9999 13.0293 22.9704 8.99988 17.9999 8.99988C13.0293 8.99988 8.99988 13.0293 8.99988 17.9999C8.99988 22.9704 13.0293 26.9999 17.9999 26.9999ZM17.0999 16.1999C17.0999 17.194 16.294 17.9999 15.2999 17.9999C14.3058 17.9999 13.4999 17.194 13.4999 16.1999C13.4999 15.2058 14.3058 14.3999 15.2999 14.3999C16.294 14.3999 17.0999 15.2058 17.0999 16.1999Z" fill="white"/>
</svg>
