<svg xmlns="http://www.w3.org/2000/svg" width="20" height="20" fill="none" viewBox="0 0 20 20"><g clip-path="url(#clip0_532_1049)"><path fill="#0052CC" d="M0.648475 1.00933C0.55494 1.00809 0.462271 1.02737 0.376992 1.06582C0.291712 1.10426 0.215897 1.16093 0.154882 1.23183C0.0938682 1.30274 0.0491388 1.38616 0.0238436 1.47621C-0.00145162 1.56627 -0.00669773 1.66078 0.00847466 1.75308L2.72785 18.2625C2.76212 18.4643 2.8662 18.6476 3.02191 18.7805C3.17762 18.9133 3.37505 18.9872 3.57972 18.9893H16.6253C16.7789 18.991 16.9281 18.9376 17.0458 18.8389C17.1635 18.7403 17.242 18.6027 17.2672 18.4512L19.9922 1.75933C20.0072 1.66712 20.0018 1.57275 19.9764 1.48285C19.951 1.39295 19.9063 1.30969 19.8453 1.23893C19.7843 1.16817 19.7085 1.11162 19.6234 1.07325C19.5382 1.03488 19.4456 1.01563 19.3522 1.01683L0.648475 1.00933ZM12.1003 12.94H7.93535L6.80847 7.05308H13.1091L12.1003 12.94Z"/></g><defs><clipPath id="clip0_532_1049"><path fill="#fff" d="M0 0H20V20H0z"/></clipPath></defs></svg>