<svg xmlns="http://www.w3.org/2000/svg" width="20" height="20" fill="none" viewBox="0 0 20 20"><g clip-path="url(#clip0_532_994)"><path fill="#fff" d="M15.2624 4.73682H4.73602V15.2632H15.2624V4.73682Z"/><path fill="#EA4335" d="M15.264 20L20.0008 15.2632H15.264V20Z"/><path fill="#FBBC04" d="M20.0008 4.73682H15.264V15.2632H20.0008V4.73682Z"/><path fill="#34A853" d="M15.2624 15.2632H4.73602V20H15.2624V15.2632Z"/><path fill="#188038" d="M0 15.2632V18.4212C0.00126609 18.8395 0.16801 19.2404 0.463818 19.5362C0.759627 19.832 1.16047 19.9987 1.5788 20H4.7368V15.2632H0Z"/><path fill="#1967D2" d="M20.0008 4.7368V1.5788C19.9995 1.16047 19.8328 0.759627 19.537 0.463818C19.2412 0.16801 18.8403 0.00126609 18.422 0L15.264 0V4.7368H20.0008Z"/><path fill="#4285F4" d="M15.2632 0H1.5792C1.1608 0.00116061 0.759855 0.167858 0.46396 0.463678C0.168066 0.759498 0.00126661 1.1604 0 1.5788L0 15.2628H4.7368V4.7372H15.2632V0Z"/><path fill="#4285F4" d="M6.8948 12.8947C6.5 12.6315 6.2368 12.2367 6.0788 11.7367L7 11.3687C7.0788 11.6843 7.2368 11.9207 7.4208 12.1051C7.6316 12.2891 7.8684 12.3683 8.158 12.3683C8.4472 12.3683 8.7104 12.2895 8.9208 12.1051C9.1316 11.9211 9.2368 11.6843 9.2368 11.4211C9.2368 11.1315 9.1316 10.8947 8.8948 10.7103C8.658 10.5263 8.3948 10.4475 8.0528 10.4475H7.5264V9.55274H8C8.2896 9.55274 8.5264 9.47354 8.7368 9.31594C8.9472 9.15794 9.0264 8.94754 9.0264 8.65794C9.0264 8.42114 8.9472 8.21034 8.7632 8.07914C8.5792 7.92114 8.3684 7.86834 8.0792 7.86834C7.8156 7.86834 7.6052 7.94754 7.4472 8.07914C7.2896 8.21034 7.158 8.39514 7.1052 8.60514L6.2104 8.23714C6.3424 7.89474 6.5524 7.60514 6.8684 7.34194C7.1844 7.07914 7.6052 6.94754 8.1052 6.94754C8.44969 6.94582 8.7906 7.01754 9.1052 7.15794C9.38941 7.28546 9.62801 7.49657 9.7892 7.76314C9.9472 8.02634 10.0264 8.28954 10.0264 8.60514C10.0264 8.92114 9.9472 9.21034 9.7896 9.42114C9.6316 9.63154 9.4472 9.81594 9.2104 9.94754V9.99994C9.5 10.1319 9.7632 10.3159 9.9472 10.5791C10.1402 10.847 10.2417 11.1699 10.2368 11.4999C10.2368 11.8683 10.158 12.1839 9.9736 12.4475C9.7896 12.7103 9.5524 12.9475 9.2104 13.1051C8.8944 13.2631 8.5264 13.3423 8.1316 13.3423C7.7104 13.2895 7.2896 13.1579 6.8948 12.8947ZM12.5 8.36834L11.5 9.10514L11 8.34194L12.7896 7.05274H13.4736V13.1579H12.5V8.36834Z"/></g><defs><clipPath id="clip0_532_994"><path fill="#fff" d="M0 0H20V20H0z"/></clipPath></defs></svg>