<svg xmlns="http://www.w3.org/2000/svg" width="20" height="20" fill="none" viewBox="0 0 20 20"><path fill="#FC6D26" d="M18.2093 11.0892L17.2872 8.25121L15.4596 2.62624C15.3656 2.33685 14.9561 2.33685 14.8621 2.62624L13.0344 8.25119H6.96539L5.13771 2.62623C5.04371 2.33683 4.63427 2.33683 4.54019 2.62623L2.71259 8.25119L1.79052 11.0893C1.74952 11.2154 1.74951 11.3514 1.7905 11.4775C1.83149 11.6037 1.91138 11.7137 2.01871 11.7917L9.99972 17.5903L17.9808 11.7917C18.0881 11.7137 18.168 11.6037 18.209 11.4776C18.25 11.3514 18.25 11.2155 18.209 11.0893"/><path fill="#E24329" d="M10 17.5904L13.0345 8.2511H6.96552L10 17.5904Z"/><path fill="#FC6D26" d="M10.0001 17.5904L6.96565 8.25146H2.71295L10.0001 17.5904Z"/><path fill="#FCA326" d="M2.71272 8.25134L1.79057 11.0894C1.74958 11.2156 1.74958 11.3515 1.79058 11.4777C1.83158 11.6039 1.91148 11.7138 2.01882 11.7918L9.99985 17.5904L2.71272 8.25134Z"/><path fill="#E24329" d="M2.71277 8.25113H6.96546L5.13777 2.62613C5.04378 2.3367 4.63429 2.3367 4.54031 2.62613L2.71277 8.25113Z"/><path fill="#FC6D26" d="M10.0001 17.5904L13.0345 8.25146H17.2872L10.0001 17.5904Z"/><path fill="#FCA326" d="M17.2874 8.25134L18.2095 11.0894C18.2505 11.2156 18.2505 11.3515 18.2095 11.4777C18.1685 11.6039 18.0886 11.7138 17.9813 11.7918L10.0002 17.5904L17.2874 8.25134Z"/><path fill="#E24329" d="M17.2871 8.25124H13.0344L14.8621 2.62625C14.9561 2.33682 15.3656 2.33682 15.4596 2.62625L17.2871 8.25124Z"/></svg>