<svg width="20" height="20" viewBox="0 0 20 20" fill="none" xmlns="http://www.w3.org/2000/svg">
<g clip-path="url(#clip0_534_1492)">
<path d="M0.0815593 15.9524C0.0815593 15.9524 -0.0422712 15.1983 0.038269 15.0383C0.109748 14.8953 1.22523 14.8268 1.72156 14.8832C1.88365 14.9013 1.97123 15.0846 2.02358 15.2547C2.18064 15.7581 2.55112 15.9947 3.05953 16.0722C4.87814 16.3443 6.71131 16.508 8.54935 16.5625C11.3588 16.6444 14.17 16.4729 16.9487 16.05C17.436 15.9776 17.7994 15.8074 17.9353 15.2809C18.0128 14.9789 18.2585 14.8188 18.5776 14.8137C18.8968 14.8087 19.2451 14.8137 19.5844 14.8218C19.9236 14.8299 20.0072 14.9507 20.0082 15.2668C20.0082 15.3403 19.9569 15.6453 19.9569 15.6453C19.9569 15.6453 19.9569 15.6735 19.8693 16.0631C19.6418 16.9219 19.086 17.4263 18.2273 17.6447C16.8077 18.0052 15.357 18.135 13.9063 18.2417C10.6472 18.478 7.37326 18.4106 4.12669 18.0404C3.34508 17.9551 2.56943 17.8219 1.80411 17.6417C0.916157 17.4293 0.277876 16.9018 0.0845796 15.9524M19.9428 5.11167C19.9428 5.28483 18.6994 5.30295 18.3853 5.23147C18.1105 5.17006 18.0289 4.9516 17.9182 4.73817C17.8325 4.55577 17.7018 4.39822 17.5383 4.28038C17.3748 4.16254 17.184 4.08829 16.9839 4.06465C13.0928 3.53006 9.19468 3.32167 5.28043 3.82202C4.56698 3.91263 3.85218 3.99149 3.13605 4.05861C2.62663 4.10391 2.27427 4.21465 2.05379 4.8026C1.91888 5.16302 1.65109 5.29691 1.27154 5.31705C0.891995 5.33718 0.483254 5.39356 0.107735 5.0855C0.0251812 4.82173 0.0443095 4.52876 0.0443095 4.27103C0.107735 3.33677 0.648361 2.6854 1.60679 2.42868C2.62965 2.15685 3.67869 2.02597 4.72772 1.89812C7.5869 1.55381 10.3776 1.57797 13.3214 1.72294C14.8738 1.79946 16.1997 1.88 17.9615 2.28068C19.3266 2.59177 19.9418 2.97031 19.9418 5.11368M19.977 6.91678C19.973 9.07995 19.973 11.2431 19.977 13.4063C19.977 13.5895 20.0052 13.7748 19.9498 13.956C19.8401 14.3426 19.522 14.3235 19.2189 14.3275C18.0682 14.3436 18.0169 14.2943 18.0169 13.1637V6.82114C18.0169 5.94929 18.1175 5.85264 19.0095 5.85365C19.4122 5.85365 19.9438 5.87882 19.9649 6.26239M14.5476 8.63027C14.7812 7.88326 14.9815 7.24599 15.1788 6.60871C15.3761 5.97144 15.5231 5.8617 16.1856 5.85566C17.4601 5.84257 17.4833 5.87278 17.0614 7.04766C16.6708 8.11783 16.3013 9.19305 15.8866 10.2532C15.4718 11.3133 15.6077 12.4006 15.5845 13.4838C15.5694 14.1735 15.4265 14.3396 14.7389 14.3758C14.6221 14.3766 14.5055 14.3668 14.3905 14.3466C13.565 14.2399 13.5489 14.2218 13.6153 13.4174C13.7472 11.8197 13.273 10.3428 12.7244 8.87793C12.4223 8.06347 12.1414 7.23894 11.8465 6.42045C11.7106 6.04392 11.8596 5.8758 12.2341 5.87278C13.7583 5.8607 13.6254 5.68451 14.0664 7.09699C14.2133 7.57117 14.3634 8.04434 14.5476 8.63027ZM11.0662 10.1495C11.0662 11.3223 11.0521 12.4952 11.0733 13.6681C11.0813 14.1151 10.9132 14.3043 10.4692 14.3325C9.12824 14.4201 9.06582 14.3708 9.06582 13.0388V6.65502C9.06582 5.97345 9.16649 5.8758 9.84605 5.85868C11.0391 5.82949 11.0783 5.87076 11.0662 7.07887C11.0582 8.10072 11.0662 9.12257 11.0662 10.1444V10.1495Z" fill="white"/>
<path d="M8.09026 14.4222C7.50131 14.1826 7.753 13.8272 7.94629 13.4305C8.01323 13.279 8.05277 13.1167 8.06308 12.9513C8.17281 10.9912 8.13355 9.06829 8.052 7.11217C8.02683 6.51315 7.69259 6.10542 7.13686 5.9091C6.14823 5.55573 5.14047 5.49331 4.12869 5.80842C3.23369 6.08629 2.93669 6.48798 2.92965 7.42527C2.9226 8.26389 2.92965 9.10353 2.92965 10.1324C2.97596 11.0133 2.86119 12.0875 2.99307 13.1587C3.07059 13.793 3.41792 14.1655 4.01493 14.3115C4.5183 14.4373 5.02772 14.5511 5.55224 14.54C5.67738 14.5314 5.80259 14.5556 5.91545 14.6104C6.02831 14.6651 6.12487 14.7485 6.19555 14.8521C6.63651 15.4441 7.30298 15.4682 7.902 15.3132C8.33087 15.1964 8.3792 14.539 8.09026 14.4222ZM6.03246 10.0901H6.02138V12.6564C6.02138 13.0399 5.95393 13.3993 5.47774 13.3933C5.05087 13.3883 4.93107 13.0641 4.93006 12.6886V7.45346C4.93006 7.07492 5.0841 6.84941 5.49284 6.84337C5.92473 6.84337 6.03145 7.11116 6.03246 7.46856V10.0901Z" fill="white"/>
<path d="M0.507403 5.9292H1.4014C1.73967 5.9292 1.9088 6.09833 1.9088 6.4366V7.39805C1.9088 7.73632 1.73967 7.90545 1.4014 7.90545H0.507403C0.169134 7.90545 0 7.73632 0 7.39805V6.4366C0 6.09833 0.169134 5.9292 0.507403 5.9292Z" fill="white"/>
<path d="M1.32788 14.3275H0.537578C0.397563 14.327 0.263433 14.2711 0.164426 14.1721C0.0654197 14.0731 0.00956357 13.939 0.0090332 13.799V8.91624C0.00956357 8.77622 0.0654197 8.64209 0.164426 8.54309C0.263433 8.44408 0.397563 8.38823 0.537578 8.3877H1.32788C1.85642 8.3877 1.85642 8.53871 1.85642 8.91624L1.88562 13.805C1.87834 13.9474 1.81616 14.0813 1.71214 14.1788C1.60813 14.2762 1.47039 14.3295 1.32788 14.3275Z" fill="white"/>
</g>
<defs>
<clipPath id="clip0_534_1492">
<rect width="20" height="20" fill="white"/>
</clipPath>
</defs>
</svg>
