<svg width="20" height="20" viewBox="0 0 20 20" fill="none" xmlns="http://www.w3.org/2000/svg">
<path d="M12.9714 7.81933L15.2336 5.72936L16.6191 3.50939C15.7577 2.00283 14.3174 0.846414 12.5865 0.317017L9.99301 2.08807L8.45573 5.08301C8.94752 4.53569 9.66081 4.19134 10.4546 4.19134C11.9383 4.19134 13.1411 5.39415 13.1411 6.87789C13.1411 7.20909 13.0811 7.52636 12.9714 7.81933ZM8.39633 5.15145L8.38843 5.16061L8.38855 5.16074L8.39633 5.15145Z" fill="#4285F4"/>
<path d="M7.41345 14.3863L11.7993 9.20404C12.3342 8.89415 12.7523 8.40514 12.9716 7.81909L16.619 3.50928C17.1714 4.47554 17.4861 5.58546 17.4861 6.76621C17.4861 8.23214 17.0016 9.58903 16.1784 10.6971H16.1785C16.1785 10.6971 12.4779 15.8542 11.8975 17.0316C11.3171 18.2091 11.201 19.2373 10.9522 19.6187C10.7033 20 10.1396 19.8177 10.007 19.2704C9.87436 18.7231 9.4099 17.5955 8.38172 15.8707C8.1315 15.4509 7.78876 14.9317 7.41345 14.3863Z" fill="#34A853"/>
<path d="M4.31177 10.0604L8.38841 5.16064L8.38853 5.16077C8.00117 5.62634 7.76802 6.22493 7.76802 6.87793C7.76802 8.36165 8.97082 9.56447 10.4546 9.56447C10.9446 9.56447 11.4039 9.43322 11.7994 9.20406L7.41338 14.3864C6.24679 12.6909 4.76505 10.7428 4.76505 10.7428H4.76555C4.60064 10.5247 4.4491 10.2968 4.31177 10.0604Z" fill="#FBBC04"/>
<path d="M4.9729 2.52893L8.42375 5.11895L4.31177 10.0603C3.74589 9.08553 3.4231 8.16454 3.4231 6.76616C3.4231 5.36779 4.00726 3.68762 4.9729 2.52893Z" fill="#EA4335"/>
<path d="M12.5865 0.317026L8.42375 5.119L4.9729 2.52897C6.26158 0.987071 8.2381 0 10.4546 0C11.1978 0 11.9141 0.111311 12.5865 0.317026Z" fill="#1A73E8"/>
</svg>
