<svg width="20" height="20" viewBox="0 0 20 20" fill="none" xmlns="http://www.w3.org/2000/svg">
<g clip-path="url(#clip0_534_1503)">
<path d="M14.0014 18.95L14.8258 20C16.1264 19.4369 17.2639 18.65 18.2014 17.6244L17.4132 16.5262C16.4882 17.6006 15.3507 18.4256 14.0132 18.9506L14.0014 18.95ZM10.0008 18.4994C5.18829 18.4994 1.28829 14.65 1.28829 9.87437C1.28829 5.125 5.18829 1.275 10.0008 1.275C14.8133 1.275 18.7139 5.15 18.7139 9.9C18.7139 12.025 17.9258 13.9756 16.6245 15.475L17.412 16.5256C19.0014 14.7738 20.0002 12.4488 20.0002 9.9C20.0002 4.4125 15.5252 0 10.0002 0C4.4752 0 0.000183105 4.42563 0.000183105 9.875C0.000183105 15.35 4.47518 19.775 10.0002 19.775C11.4252 19.775 12.7752 19.4869 14.0008 18.95L13.2002 17.9C12.2002 18.275 11.1252 18.4994 10.0002 18.4994H10.0008ZM15.0008 10.5381C13.1258 8.98812 10.5508 8.7875 8.50016 7.575C7.87516 7.17562 8.37712 6.4125 9.00212 6.3875C11.2515 6.0125 13.4765 6.9125 15.5765 7.6375L15.7021 5.425C13.0765 4.475 10.2271 3.8625 7.45149 4.3C6.45149 4.55 5.45149 4.8625 4.73962 5.6C3.76399 6.6 3.93899 8.4 5.06399 9.2C6.92704 10.6625 9.37714 10.8756 11.4145 12C12.2145 12.325 11.877 13.4 11.0889 13.475C8.65141 13.9375 6.25141 12.8744 4.15141 11.725C4.12641 12.575 4.10141 13.4 4.10141 14.225C6.76391 15.3994 9.72641 15.9494 12.6014 15.4994C13.5764 15.3119 14.5764 14.9994 15.2889 14.2875C16.3133 13.2875 16.2145 11.3619 15.0139 10.5375L15.0008 10.5381Z" fill="white"/>
</g>
<defs>
<clipPath id="clip0_534_1503">
<rect width="20" height="20" fill="white"/>
</clipPath>
</defs>
</svg>
