<svg xmlns="http://www.w3.org/2000/svg" width="18" height="16" fill="none" viewBox="0 0 18 16"><g fill="#fff" clip-path="url(#clip0_515_1133)"><path d="M6.63055 11.9161H16.5805L17.9999 9.49809L12.6675 0.466431L11.266 2.91385L15.2608 9.4482L7.99979 9.49426L6.63055 11.9161Z"/><path d="M14.5617 15.6409H4.04691L2.43811 13.4938L7.55172 4.70618L8.91297 7.06436L5.30548 13.4065L13.2222 13.5392L14.5617 15.6409Z"/><path d="M0 9.45208L5.56235 0.359009H8.26117L13.4247 9.13896L10.5372 9.17094L6.89417 2.65003L2.82835 9.50102L0 9.45208Z"/><path d="M15.3718 12.5756L15.8401 13.5582L14.5617 15.641L12.6692 12.6306L15.3718 12.5756ZM9.56126 1.29962L10.017 0.479224L12.6676 0.466431L10.9036 3.52667L9.56126 1.29962ZM2.53628 12.044L1.72356 12.0565L-6.10352e-05 9.45204L4.03985 9.50065L2.53628 12.044Z"/></g><defs><clipPath id="clip0_515_1133"><path fill="#fff" d="M0 0H18V16H0z"/></clipPath></defs></svg>