<svg xmlns="http://www.w3.org/2000/svg" width="18" height="18" fill="none" viewBox="0 0 18 18"><g clip-path="url(#clip0_515_877)"><g clip-path="url(#clip1_515_877)"><path fill="#1ABCFE" d="M9 8.99998C9 7.3406 10.35 5.9906 12.0094 5.9906C13.6688 5.9906 15.0188 7.3406 15.0188 8.99998C15.0188 10.6594 13.6688 12.0094 12.0094 12.0094C10.35 12.0094 9 10.6594 9 8.99998Z"/><path fill="#0ACF83" d="M3.0094 14.9906C3.0094 13.3313 4.3594 11.9813 6.01877 11.9813H9.00002V14.9906C9.00002 16.65 7.65002 18 5.99065 18C4.33127 18 3.0094 16.65 3.0094 14.9906Z"/><path fill="#FF7262" d="M9 0V5.99062H12.0094C13.6688 5.99062 15.0188 4.64062 15.0188 2.98125C15.0188 1.32188 13.6688 0 12.0094 0H9Z"/><path fill="#F24E1E" d="M3.0094 3.00937C3.0094 4.66875 4.3594 6.01875 6.01877 6.01875H9.00002V0H5.99065C4.33127 0 3.0094 1.35 3.0094 3.00937Z"/><path fill="#A259FF" d="M3.0094 8.99998C3.0094 10.6594 4.3594 12.0094 6.01877 12.0094H9.00002V5.9906H5.99065C4.33127 5.9906 3.0094 7.3406 3.0094 8.99998Z"/></g></g><defs><clipPath id="clip0_515_877"><path fill="#fff" d="M0 0H18V18H0z"/></clipPath><clipPath id="clip1_515_877"><path fill="#fff" d="M0 0H18V18H0z"/></clipPath></defs></svg>