<svg width="20" height="20" viewBox="0 0 20 20" fill="none" xmlns="http://www.w3.org/2000/svg">
<path d="M3.41538 6.9231C3.90769 6.9231 4.41846 7.01617 4.94692 7.2031L4.66769 7.81617L4.58769 7.99617C4.52154 8.13771 4.43923 8.20925 4.34154 8.20925C4.31196 8.20771 4.28259 8.20334 4.25385 8.19617C4.28753 8.1301 4.30742 8.05787 4.31231 7.98386C4.31231 7.79694 4.18769 7.63386 3.93923 7.4954C3.67195 7.35155 3.37193 7.27946 3.06846 7.28617C2.38923 7.28617 1.83769 7.5554 1.41308 8.09233C0.988462 8.62925 0.776154 9.32771 0.776154 10.1877C0.776154 10.8531 0.925385 11.3831 1.22308 11.7785C1.52077 12.1739 1.91923 12.3708 2.41692 12.3708C2.77615 12.3708 3.13462 12.2631 3.49231 12.0477C3.85 11.8323 4.11385 11.5654 4.28308 11.2477C4.34769 11.2785 4.37923 11.3231 4.37923 11.3816C4.37923 11.5654 4.21077 11.8077 3.87385 12.1085C3.30385 12.6177 2.65538 12.8723 1.92846 12.8723C1.34154 12.8723 0.873077 12.66 0.523846 12.2354C0.174615 11.8108 0 11.2416 0 10.5262C0 9.50463 0.326923 8.64925 0.980769 7.95848C1.63462 7.26848 2.44615 6.9231 3.41538 6.9231ZM7.22923 8.15386C7.51846 8.15386 7.76462 8.19002 7.96769 8.26156C7.95922 8.29226 7.95102 8.32303 7.94308 8.35386L7.89231 8.5754C7.87182 8.66385 7.85387 8.75286 7.83846 8.84233L7.57154 10.6877L7.53308 10.9546C7.49769 11.2192 7.47923 11.3962 7.47923 11.4854C7.47923 11.6046 7.51385 11.6646 7.58385 11.6646C7.81769 11.6646 8.05692 11.4031 8.30154 10.88C8.37692 10.9239 8.41462 10.9685 8.41462 11.0131C8.41462 11.1108 8.29462 11.3069 8.05538 11.6016C7.73 12.0023 7.42769 12.2031 7.14923 12.2031C6.94615 12.2031 6.84462 12.0669 6.84462 11.7939C6.84462 11.71 6.85462 11.5946 6.87385 11.4477L6.91538 11.1131L6.97 10.7462L7.01615 10.4369C6.70077 10.9546 6.35538 11.3785 5.97846 11.7085C5.60154 12.0377 5.27385 12.2031 4.99538 12.2031C4.61385 12.2031 4.42308 11.8954 4.42308 11.28C4.42308 10.4339 4.70077 9.70156 5.25615 9.08233C5.81154 8.4631 6.46923 8.1531 7.22923 8.1531V8.15386ZM11.51 8.09925C11.78 8.09925 11.9154 8.28694 11.9154 8.6631C11.9154 8.77694 11.9 8.94771 11.8692 9.17617L11.6438 10.7331C11.605 10.9777 11.5827 11.2247 11.5769 11.4723C11.5769 11.6169 11.6162 11.6892 11.6938 11.6892C11.8862 11.6892 12.1223 11.4331 12.4038 10.9216C12.4708 10.9631 12.5038 11.0062 12.5038 11.0508C12.5038 11.2316 12.3485 11.4692 12.0385 11.7623C11.7285 12.0562 11.4754 12.2031 11.2808 12.2031C11.0638 12.2031 10.9554 12.0469 10.9554 11.7354C10.9554 11.5069 10.9846 11.1916 11.0431 10.7877L11.1892 9.77771C11.2362 9.44925 11.26 9.18848 11.26 8.99694C11.26 8.77694 11.1831 8.66694 11.03 8.66694C10.6738 8.66694 10.3131 8.90848 9.94692 9.39156C9.58077 9.87386 9.36769 10.3923 9.30615 10.9462L9.19308 11.9485L8.57154 12.2023L8.58385 12.0862L8.61692 11.7769L8.65077 11.4846L8.86769 9.54771L8.89308 9.32694C8.90923 9.15386 8.91769 9.01463 8.91769 8.90925C8.91769 8.73079 8.87308 8.64156 8.78462 8.64156C8.57539 8.64156 8.35154 8.87848 8.11231 9.35156C8.04846 9.29848 8.01615 9.2531 8.01615 9.21386C8.01615 9.04694 8.16846 8.81925 8.47308 8.53156C8.77769 8.2431 9.01769 8.09925 9.19308 8.09925C9.43308 8.09925 9.55231 8.25233 9.55231 8.55848C9.55231 8.63617 9.54538 8.74079 9.53154 8.87156L9.49846 9.21002L9.46462 9.49387L9.43154 9.79002C9.7292 9.33442 10.0929 8.9256 10.5108 8.57694C10.9015 8.25848 11.2346 8.09925 11.5108 8.09925H11.51ZM6.48538 8.56694C6.09615 8.56694 5.76923 8.8054 5.50462 9.28079C5.24 9.75694 5.10846 10.3469 5.10846 11.05C5.10846 11.4123 5.21538 11.5931 5.42923 11.5931C5.67692 11.5931 5.97615 11.4039 6.32692 11.0254C6.7929 10.531 7.09347 9.90375 7.18692 9.23079L7.25385 8.78002C7.02055 8.64345 6.7557 8.57001 6.48538 8.56694ZM16.2277 8.09925C16.3219 8.14137 16.4013 8.21082 16.4557 8.29859C16.51 8.38637 16.5367 8.48843 16.5323 8.59156C16.5323 8.87002 16.2669 9.41156 15.7354 10.2154C15.6506 10.339 15.5685 10.4644 15.4892 10.5916L15.3846 10.7708L15.1923 11.0754C15.0869 11.2431 14.9754 11.4308 14.8585 11.6392L14.2785 12.2031C14.1723 11.3069 14 10.4939 13.7608 9.76463C13.5215 9.0354 13.3069 8.67079 13.1177 8.67079C12.9062 8.67079 12.7585 8.88156 12.6754 9.30156C12.5946 9.27386 12.5538 9.22771 12.5538 9.1631C12.5538 8.95233 12.6454 8.72463 12.8277 8.47848C13.01 8.23386 13.1815 8.10771 13.3431 8.09925C13.9469 8.06848 14.4277 9.12771 14.7831 11.2762C15.56 10.1908 15.9485 9.4354 15.9485 9.00925C15.9485 8.85079 15.8677 8.7254 15.7062 8.63386L16.2277 8.09925ZM18.8146 8.1531C19.1038 8.1531 19.35 8.19002 19.5531 8.26233C19.5446 8.29277 19.5364 8.32328 19.5285 8.35386L19.4785 8.5754C19.4577 8.66384 19.4395 8.75285 19.4238 8.84233L19.1569 10.6877L19.1185 10.9546C19.0831 11.2192 19.0646 11.3962 19.0646 11.4854C19.0646 11.6046 19.1 11.6646 19.1692 11.6646C19.4031 11.6646 19.6423 11.4031 19.8869 10.88C19.9623 10.9239 20 10.9685 20 11.0131C20 11.1108 19.88 11.3069 19.6408 11.6016C19.3154 12.0023 19.0131 12.2031 18.7354 12.2031C18.5315 12.2031 18.43 12.0669 18.43 11.7939C18.43 11.71 18.44 11.5946 18.4592 11.4477L18.5015 11.1131L18.5554 10.7462L18.6015 10.4369C18.2869 10.9546 17.9408 11.3785 17.5638 11.7085C17.1869 12.0377 16.8592 12.2031 16.5808 12.2031C16.1992 12.2031 16.0092 11.8954 16.0092 11.28C16.0092 10.4339 16.2862 9.70156 16.8415 9.08233C17.3969 8.4631 18.0546 8.1531 18.8146 8.1531ZM18.0715 8.56694C17.6815 8.56694 17.3546 8.8054 17.09 9.28079C16.8262 9.75694 16.6938 10.3469 16.6938 11.05C16.6938 11.4123 16.8008 11.5931 17.0154 11.5931C17.2631 11.5931 17.5615 11.4039 17.9123 11.0254C18.3783 10.531 18.6789 9.90375 18.7723 9.23079L18.8392 8.78002C18.6062 8.64358 18.3416 8.57015 18.0715 8.56694Z" fill="black"/>
<path d="M3.41538 6.9231C3.90769 6.9231 4.41846 7.01617 4.94692 7.2031L4.66769 7.81617L4.58769 7.99617C4.52154 8.13771 4.43923 8.20925 4.34154 8.20925C4.31196 8.20771 4.28259 8.20334 4.25385 8.19617C4.28753 8.1301 4.30742 8.05787 4.31231 7.98386C4.31231 7.79694 4.18769 7.63386 3.93923 7.4954C3.67195 7.35155 3.37193 7.27946 3.06846 7.28617C2.38923 7.28617 1.83769 7.5554 1.41308 8.09233C0.988462 8.62925 0.776154 9.32771 0.776154 10.1877C0.776154 10.8531 0.925385 11.3831 1.22308 11.7785C1.52077 12.1739 1.91923 12.3708 2.41692 12.3708C2.77615 12.3708 3.13462 12.2631 3.49231 12.0477C3.85 11.8323 4.11385 11.5654 4.28308 11.2477C4.34769 11.2785 4.37923 11.3231 4.37923 11.3816C4.37923 11.5654 4.21077 11.8077 3.87385 12.1085C3.30385 12.6177 2.65538 12.8723 1.92846 12.8723C1.34154 12.8723 0.873077 12.66 0.523846 12.2354C0.174615 11.8108 0 11.2416 0 10.5262C0 9.50463 0.326923 8.64925 0.980769 7.95848C1.63462 7.26848 2.44615 6.9231 3.41538 6.9231ZM7.22923 8.15386C7.51846 8.15386 7.76462 8.19002 7.96769 8.26156C7.95922 8.29226 7.95102 8.32303 7.94308 8.35386L7.89231 8.5754C7.87182 8.66385 7.85387 8.75286 7.83846 8.84233L7.57154 10.6877L7.53308 10.9546C7.49769 11.2192 7.47923 11.3962 7.47923 11.4854C7.47923 11.6046 7.51385 11.6646 7.58385 11.6646C7.81769 11.6646 8.05692 11.4031 8.30154 10.88C8.37692 10.9239 8.41462 10.9685 8.41462 11.0131C8.41462 11.1108 8.29462 11.3069 8.05538 11.6016C7.73 12.0023 7.42769 12.2031 7.14923 12.2031C6.94615 12.2031 6.84462 12.0669 6.84462 11.7939C6.84462 11.71 6.85462 11.5946 6.87385 11.4477L6.91538 11.1131L6.97 10.7462L7.01615 10.4369C6.70077 10.9546 6.35538 11.3785 5.97846 11.7085C5.60154 12.0377 5.27385 12.2031 4.99538 12.2031C4.61385 12.2031 4.42308 11.8954 4.42308 11.28C4.42308 10.4339 4.70077 9.70156 5.25615 9.08233C5.81154 8.4631 6.46923 8.1531 7.22923 8.1531V8.15386ZM11.51 8.09925C11.78 8.09925 11.9154 8.28694 11.9154 8.6631C11.9154 8.77694 11.9 8.94771 11.8692 9.17617L11.6438 10.7331C11.605 10.9777 11.5827 11.2247 11.5769 11.4723C11.5769 11.6169 11.6162 11.6892 11.6938 11.6892C11.8862 11.6892 12.1223 11.4331 12.4038 10.9216C12.4708 10.9631 12.5038 11.0062 12.5038 11.0508C12.5038 11.2316 12.3485 11.4692 12.0385 11.7623C11.7285 12.0562 11.4754 12.2031 11.2808 12.2031C11.0638 12.2031 10.9554 12.0469 10.9554 11.7354C10.9554 11.5069 10.9846 11.1916 11.0431 10.7877L11.1892 9.77771C11.2362 9.44925 11.26 9.18848 11.26 8.99694C11.26 8.77694 11.1831 8.66694 11.03 8.66694C10.6738 8.66694 10.3131 8.90848 9.94692 9.39156C9.58077 9.87386 9.36769 10.3923 9.30615 10.9462L9.19308 11.9485L8.57154 12.2023L8.58385 12.0862L8.61692 11.7769L8.65077 11.4846L8.86769 9.54771L8.89308 9.32694C8.90923 9.15386 8.91769 9.01463 8.91769 8.90925C8.91769 8.73079 8.87308 8.64156 8.78462 8.64156C8.57539 8.64156 8.35154 8.87848 8.11231 9.35156C8.04846 9.29848 8.01615 9.2531 8.01615 9.21386C8.01615 9.04694 8.16846 8.81925 8.47308 8.53156C8.77769 8.2431 9.01769 8.09925 9.19308 8.09925C9.43308 8.09925 9.55231 8.25233 9.55231 8.55848C9.55231 8.63617 9.54538 8.74079 9.53154 8.87156L9.49846 9.21002L9.46462 9.49387L9.43154 9.79002C9.7292 9.33442 10.0929 8.9256 10.5108 8.57694C10.9015 8.25848 11.2346 8.09925 11.5108 8.09925H11.51ZM6.48538 8.56694C6.09615 8.56694 5.76923 8.8054 5.50462 9.28079C5.24 9.75694 5.10846 10.3469 5.10846 11.05C5.10846 11.4123 5.21538 11.5931 5.42923 11.5931C5.67692 11.5931 5.97615 11.4039 6.32692 11.0254C6.7929 10.531 7.09347 9.90375 7.18692 9.23079L7.25385 8.78002C7.02055 8.64345 6.7557 8.57001 6.48538 8.56694ZM16.2277 8.09925C16.3219 8.14137 16.4013 8.21082 16.4557 8.29859C16.51 8.38637 16.5367 8.48843 16.5323 8.59156C16.5323 8.87002 16.2669 9.41156 15.7354 10.2154C15.6506 10.339 15.5685 10.4644 15.4892 10.5916L15.3846 10.7708L15.1923 11.0754C15.0869 11.2431 14.9754 11.4308 14.8585 11.6392L14.2785 12.2031C14.1723 11.3069 14 10.4939 13.7608 9.76463C13.5215 9.0354 13.3069 8.67079 13.1177 8.67079C12.9062 8.67079 12.7585 8.88156 12.6754 9.30156C12.5946 9.27386 12.5538 9.22771 12.5538 9.1631C12.5538 8.95233 12.6454 8.72463 12.8277 8.47848C13.01 8.23386 13.1815 8.10771 13.3431 8.09925C13.9469 8.06848 14.4277 9.12771 14.7831 11.2762C15.56 10.1908 15.9485 9.4354 15.9485 9.00925C15.9485 8.85079 15.8677 8.7254 15.7062 8.63386L16.2277 8.09925ZM18.8146 8.1531C19.1038 8.1531 19.35 8.19002 19.5531 8.26233C19.5446 8.29277 19.5364 8.32328 19.5285 8.35386L19.4785 8.5754C19.4577 8.66384 19.4395 8.75285 19.4238 8.84233L19.1569 10.6877L19.1185 10.9546C19.0831 11.2192 19.0646 11.3962 19.0646 11.4854C19.0646 11.6046 19.1 11.6646 19.1692 11.6646C19.4031 11.6646 19.6423 11.4031 19.8869 10.88C19.9623 10.9239 20 10.9685 20 11.0131C20 11.1108 19.88 11.3069 19.6408 11.6016C19.3154 12.0023 19.0131 12.2031 18.7354 12.2031C18.5315 12.2031 18.43 12.0669 18.43 11.7939C18.43 11.71 18.44 11.5946 18.4592 11.4477L18.5015 11.1131L18.5554 10.7462L18.6015 10.4369C18.2869 10.9546 17.9408 11.3785 17.5638 11.7085C17.1869 12.0377 16.8592 12.2031 16.5808 12.2031C16.1992 12.2031 16.0092 11.8954 16.0092 11.28C16.0092 10.4339 16.2862 9.70156 16.8415 9.08233C17.3969 8.4631 18.0546 8.1531 18.8146 8.1531ZM18.0715 8.56694C17.6815 8.56694 17.3546 8.8054 17.09 9.28079C16.8262 9.75694 16.6938 10.3469 16.6938 11.05C16.6938 11.4123 16.8008 11.5931 17.0154 11.5931C17.2631 11.5931 17.5615 11.4039 17.9123 11.0254C18.3783 10.531 18.6789 9.90375 18.7723 9.23079L18.8392 8.78002C18.6062 8.64358 18.3416 8.57015 18.0715 8.56694Z" fill="white"/>
</svg>
