<svg width="20" height="20" viewBox="0 0 20 20" fill="none" xmlns="http://www.w3.org/2000/svg">
<g clip-path="url(#clip0_532_1013)">
<path d="M5.88333 0.833374L10 4.06087L4.06833 7.50004L0 4.44087L5.88333 0.833374ZM0 11.3925L4.06833 8.33337L10 11.7725L5.88333 15L0 11.3925ZM10 11.7734L15.9317 8.33337L20 11.3925L14.1167 15L10 11.7734ZM10 12.5L14.085 15.7167L15.8333 14.6334V15.8475L10 19.1667L4.16667 15.8475V14.6334L5.915 15.7167L10 12.5ZM20 4.44087L14.1167 0.833374L10 4.06087L15.9317 7.50004L20 4.44087Z" fill="white"/>
</g>
<defs>
<clipPath id="clip0_532_1013">
<rect width="20" height="20" fill="white"/>
</clipPath>
</defs>
</svg>
