<svg width="20" height="20" viewBox="0 0 20 20" fill="none" xmlns="http://www.w3.org/2000/svg">
<path d="M14.3178 10.0785L8.08244 13.6785C6.6968 14.4785 5.60398 14.1856 4.80398 12.8C4.00398 11.4144 4.2968 10.3215 5.68244 9.52153L11.9178 5.92153C13.3035 5.12153 14.3963 5.41435 15.1963 6.79999C15.9963 8.18563 15.7035 9.27845 14.3178 10.0785Z" fill="#5BC7F8"/>
<path d="M8.08222 2.32154L14.3176 5.92154C14.8689 6.23978 15.2711 6.76396 15.4359 7.37878C15.6007 7.9936 15.5144 8.64869 15.1962 9.19994C14.7008 10.0745 13.7134 10.4239 13.1288 10.7653L5.68222 6.47854C5.13097 6.16028 4.72872 5.63607 4.56397 5.02123C4.39922 4.40639 4.48546 3.75129 4.80372 3.20004C5.12198 2.64879 5.64619 2.24654 6.26102 2.08179C6.87586 1.91704 7.53097 2.00328 8.08222 2.32154Z" fill="#E83A70"/>
<path d="M8.30217 8.00415L7.54077 8.49415L13.2 10.8L8.30217 8.00415Z" fill="#4193F3"/>
<path d="M8.08219 2.32155L14.3176 5.92155C15.7032 6.72155 15.996 7.81437 15.196 9.20002C14.396 10.5857 13.3032 10.8785 11.9176 10.0785L5.68219 6.47848C4.29655 5.67848 4.00373 4.58566 4.80373 3.20002C5.60373 1.81438 6.69655 1.52155 8.08219 2.32155Z" fill="#E83A70"/>
<path d="M6.94985 15.3C7.30758 15.3142 7.64515 15.4694 7.88875 15.7318C8.13236 15.9941 8.26219 16.3423 8.24985 16.7C8.26219 17.0578 8.13236 17.406 7.88875 17.6683C7.64515 17.9307 7.30758 18.0859 6.94985 18.1C6.59213 18.0859 6.25456 17.9307 6.01095 17.6683C5.76735 17.406 5.63752 17.0578 5.64985 16.7C5.63752 16.3423 5.76735 15.9941 6.01095 15.7318C6.25456 15.4694 6.59213 15.3142 6.94985 15.3ZM6.94985 17.5C7.14836 17.4857 7.3332 17.3937 7.46426 17.2439C7.59532 17.0941 7.66201 16.8987 7.64985 16.7C7.66201 16.5014 7.59532 16.306 7.46426 16.1562C7.3332 16.0064 7.14836 15.9144 6.94985 15.9C6.75135 15.9144 6.5665 16.0064 6.43544 16.1562C6.30439 16.306 6.2377 16.5014 6.24985 16.7C6.2377 16.8987 6.30439 17.0941 6.43544 17.2439C6.5665 17.3937 6.75135 17.4857 6.94985 17.5Z" fill="#E83B71"/>
<path d="M4.44979 16.8C4.40599 16.8 4.36273 16.7904 4.32303 16.7719C4.28333 16.7534 4.24816 16.7265 4.21999 16.693L4.09379 16.5426L3.24099 15.7154C3.18389 15.66 3.15114 15.5841 3.14994 15.5046C3.14874 15.425 3.17919 15.3483 3.23459 15.2912C3.28999 15.2341 3.36581 15.2013 3.44536 15.2001C3.52491 15.1989 3.60168 15.2294 3.65879 15.2848L4.53339 16.1332L4.67939 16.3068C4.71619 16.3505 4.73975 16.4038 4.74727 16.4605C4.75479 16.5171 4.74597 16.5748 4.72185 16.6266C4.69773 16.6784 4.65931 16.7222 4.61111 16.7529C4.56291 16.7837 4.50694 16.8 4.44979 16.8Z" fill="#E83B71"/>
<path d="M4.44987 16.7995C4.3793 16.7996 4.311 16.7746 4.25707 16.7291C4.19619 16.678 4.15813 16.6047 4.15127 16.5254C4.1444 16.4462 4.16929 16.3674 4.22047 16.3065L4.36647 16.1327L5.24147 15.2841C5.29857 15.2287 5.37534 15.1983 5.45489 15.1995C5.53444 15.2007 5.61026 15.2334 5.66567 15.2905C5.72107 15.3476 5.75152 15.4244 5.75032 15.504C5.74912 15.5835 5.71636 15.6593 5.65927 15.7147L4.80587 16.5425L4.67947 16.6929C4.65128 16.7264 4.61612 16.7532 4.57646 16.7716C4.5368 16.7901 4.49359 16.7996 4.44987 16.7995Z" fill="#E83B71"/>
<path d="M4.44978 17.9992C4.37022 17.9992 4.29391 17.9676 4.23765 17.9114C4.18139 17.8551 4.14978 17.7788 4.14978 17.6992V16.4406C4.14978 16.4012 4.15754 16.3622 4.17262 16.3258C4.18769 16.2894 4.20979 16.2564 4.23765 16.2285C4.26551 16.2006 4.29858 16.1785 4.33498 16.1635C4.37137 16.1484 4.41038 16.1406 4.44978 16.1406C4.52935 16.1406 4.60565 16.1722 4.66191 16.2285C4.71817 16.2848 4.74978 16.3611 4.74978 16.4406V17.6992C4.74978 17.7788 4.71817 17.8551 4.66191 17.9114C4.60565 17.9676 4.52935 17.9992 4.44978 17.9992Z" fill="#E83B71"/>
<path d="M8.73359 17C8.65403 17 8.57772 16.9684 8.52146 16.9122C8.4652 16.8559 8.43359 16.7796 8.43359 16.7V15.6C8.43359 15.5205 8.4652 15.4442 8.52146 15.3879C8.57772 15.3317 8.65403 15.3 8.73359 15.3C8.81316 15.3 8.88946 15.3317 8.94573 15.3879C9.00199 15.4442 9.03359 15.5205 9.03359 15.6V16.7C9.03359 16.7796 9.00199 16.8559 8.94573 16.9122C8.88946 16.9684 8.81316 17 8.73359 17Z" fill="#E83B71"/>
<path d="M10.7336 17C10.654 17 10.5777 16.9684 10.5215 16.9122C10.4652 16.8559 10.4336 16.7796 10.4336 16.7V15.6C10.4336 15.5205 10.4652 15.4442 10.5215 15.3879C10.5777 15.3317 10.654 15.3 10.7336 15.3C10.8132 15.3 10.8895 15.3317 10.9457 15.3879C11.002 15.4442 11.0336 15.5205 11.0336 15.6V16.7C11.0336 16.7796 11.002 16.8559 10.9457 16.9122C10.8895 16.9684 10.8132 17 10.7336 17Z" fill="#E83B71"/>
<path d="M9.75879 18.0992C9.51433 18.1095 9.27241 18.0462 9.06437 17.9174C8.85633 17.7886 8.69177 17.6003 8.59199 17.3768C8.49456 17.1643 8.4407 16.9344 8.43359 16.7006L9.03359 16.6978V16.6962C9.0408 16.8486 9.07762 16.998 9.14199 17.1362C9.19451 17.2532 9.28207 17.351 9.39257 17.416C9.50307 17.481 9.63104 17.5101 9.75879 17.4992C9.84411 17.5054 9.92979 17.4937 10.0103 17.4647C10.0908 17.4358 10.1643 17.3903 10.2262 17.3312C10.3634 17.1544 10.4365 16.9362 10.4336 16.7124C10.4303 16.6329 10.4588 16.5553 10.5127 16.4967C10.5666 16.4381 10.6416 16.4033 10.7212 16.4C10.8008 16.3967 10.8784 16.4252 10.937 16.4791C10.9955 16.5331 11.0303 16.6081 11.0336 16.6876C11.0461 17.0754 10.9125 17.4537 10.6594 17.7476C10.542 17.8657 10.4013 17.958 10.2462 18.0186C10.0911 18.0791 9.92512 18.1066 9.75879 18.0992Z" fill="#E83B71"/>
<path d="M11.75 17.9995C11.6704 17.9995 11.5941 17.9679 11.5378 17.9116C11.4816 17.8553 11.45 17.779 11.45 17.6995V15.4995C11.45 15.4199 11.4816 15.3436 11.5378 15.2873C11.5941 15.2311 11.6704 15.1995 11.75 15.1995C11.8295 15.1995 11.9058 15.2311 11.9621 15.2873C12.0183 15.3436 12.05 15.4199 12.05 15.4995V17.6995C12.05 17.779 12.0183 17.8553 11.9621 17.9116C11.9058 17.9679 11.8295 17.9995 11.75 17.9995Z" fill="#59C1F7"/>
<path d="M13.5336 17.999C13.4917 17.999 13.4502 17.9902 13.4118 17.9732C13.3735 17.9562 13.3391 17.9313 13.311 17.9002C12.9428 17.4934 12.3416 16.8322 12.2414 16.7304C12.1865 16.6846 12.1498 16.6208 12.1378 16.5504L12.099 16.3282L12.279 16.2398C12.4036 16.1364 12.9536 15.6284 13.3292 15.279C13.358 15.2521 13.3919 15.2312 13.4288 15.2174C13.4657 15.2037 13.5049 15.1973 13.5443 15.1987C13.5837 15.2001 13.6224 15.2092 13.6582 15.2256C13.6941 15.2419 13.7263 15.2652 13.7532 15.294C13.7802 15.3228 13.8012 15.3568 13.8151 15.3938C13.8289 15.4308 13.8353 15.4702 13.8339 15.5096C13.8325 15.5491 13.8233 15.588 13.8068 15.6239C13.7904 15.6598 13.767 15.6921 13.738 15.719C13.7354 15.721 13.4638 15.9738 13.1936 16.2226C13.0628 16.3426 12.9536 16.4426 12.8668 16.5214C12.9811 16.6458 13.0952 16.7705 13.209 16.8954C13.48 17.1928 13.7532 17.4954 13.756 17.4978C13.7949 17.5408 13.8205 17.5943 13.8297 17.6516C13.8389 17.7089 13.8312 17.7676 13.8077 17.8207C13.7841 17.8737 13.7457 17.9188 13.6971 17.9505C13.6484 17.9821 13.5916 17.999 13.5336 17.999Z" fill="#59C1F7"/>
<path d="M14.5498 17C14.4702 17 14.3939 16.9684 14.3376 16.9122C14.2814 16.8559 14.2498 16.7796 14.2498 16.7V15.6C14.2498 15.5205 14.2814 15.4442 14.3376 15.3879C14.3939 15.3317 14.4702 15.3 14.5498 15.3C14.6293 15.3 14.7056 15.3317 14.7619 15.3879C14.8181 15.4442 14.8498 15.5205 14.8498 15.6V16.7C14.8498 16.7796 14.8181 16.8559 14.7619 16.9122C14.7056 16.9684 14.6293 17 14.5498 17Z" fill="#59C1F7"/>
<path d="M16.5498 17C16.5104 17 16.4713 16.9923 16.435 16.9772C16.3986 16.9621 16.3655 16.94 16.3376 16.9122C16.3098 16.8843 16.2877 16.8513 16.2726 16.8149C16.2575 16.7785 16.2498 16.7394 16.2498 16.7V15.6C16.2498 15.5607 16.2575 15.5216 16.2726 15.4852C16.2877 15.4488 16.3098 15.4158 16.3376 15.3879C16.3655 15.3601 16.3986 15.338 16.435 15.3229C16.4713 15.3078 16.5104 15.3 16.5498 15.3C16.6293 15.3 16.7056 15.3317 16.7619 15.3879C16.8181 15.4442 16.8498 15.5205 16.8498 15.6V16.7C16.8498 16.7796 16.8181 16.8559 16.7619 16.9122C16.7056 16.9684 16.6293 17 16.5498 17Z" fill="#59C1F7"/>
<path d="M15.575 18.0992C15.3305 18.1095 15.0886 18.0462 14.8805 17.9174C14.6725 17.7886 14.5079 17.6003 14.4082 17.3768C14.3107 17.1643 14.2569 16.9344 14.2498 16.7006L14.8498 16.6978V16.6962C14.857 16.8486 14.8938 16.998 14.9582 17.1362C15.0107 17.2532 15.0982 17.351 15.2087 17.416C15.3192 17.481 15.4472 17.5101 15.575 17.4992C15.6603 17.5054 15.7459 17.4937 15.8265 17.4647C15.907 17.4358 15.9805 17.3903 16.0424 17.3312C16.1795 17.1544 16.2526 16.9362 16.2498 16.7124C16.2481 16.673 16.2543 16.6337 16.2678 16.5967C16.2814 16.5597 16.3021 16.5257 16.3289 16.4967C16.3556 16.4677 16.3877 16.4442 16.4235 16.4276C16.4593 16.411 16.498 16.4017 16.5374 16.4C16.5768 16.3984 16.6161 16.4046 16.6531 16.4181C16.6901 16.4317 16.7241 16.4524 16.7531 16.4791C16.7821 16.5058 16.8056 16.538 16.8222 16.5738C16.8388 16.6096 16.8481 16.6482 16.8498 16.6876C16.8622 17.0754 16.7287 17.4537 16.4756 17.7476C16.3582 17.8657 16.2175 17.958 16.0624 18.0186C15.9073 18.0791 15.7413 18.1066 15.575 18.0992Z" fill="#59C1F7"/>
</svg>
