<svg width="20" height="20" viewBox="0 0 20 20" fill="none" xmlns="http://www.w3.org/2000/svg">
<path d="M19.7683 3.58138L18.1675 3.49412C18.1675 3.49412 17.562 1.32662 14.7833 1.13215C12.0045 0.937736 10.1864 1.0598 10.1864 1.0598C10.1864 1.0598 12.2476 2.39873 11.4215 4.78793C10.8078 6.07655 9.83673 7.12943 8.80141 8.33947L1.95544 16.3116C8.32826 16.2162 12.0854 16.1685 13.227 16.1685C16.4283 16.1685 19.1338 13.3357 19.0231 10.1839C18.947 8.01775 18.2711 7.52832 18.0388 6.57962C17.8065 5.63091 18.2715 4.118 19.7683 3.58138Z" fill="#31CC79"/>
<path d="M8.77351 8.36518C5.42269 12.2265 0.156616 18.3702 0.156616 18.3702C9.63036 20.9074 13.9953 14.7497 14.6788 12.6179C15.5951 9.7598 14.3004 8.36515 13.5676 7.91031C11.0829 6.36815 9.23948 7.82818 8.77351 8.36515V8.36518Z" fill="#93E65C"/>
<path d="M8.82001 8.27604C9.35156 7.70246 11.1586 6.3683 13.569 7.87031C14.3018 8.32693 15.5967 9.72721 14.6802 12.597C14.4148 13.4285 13.5937 14.8699 12.1334 16.1725C10.6191 16.1829 7.22049 16.2276 1.93738 16.3069L8.46764 8.68538C8.58002 8.55398 8.69263 8.42278 8.80546 8.29177L8.82001 8.27604Z" fill="#60DB69"/>
</svg>
