<svg xmlns="http://www.w3.org/2000/svg" width="20" height="20" fill="none" viewBox="0 0 20 20"><path fill="#fff" d="M3.82249 11.3581L3.59749 11.3481H1.57499L4.27061 8.65245L4.25999 8.42745C4.25571 8.25319 4.18463 8.08725 4.06143 7.96394C3.93824 7.84063 3.77236 7.76939 3.59811 7.76495H3.59749L3.37249 7.75432H0.00311279L0.0149878 7.97932C0.0431128 8.34432 0.309363 8.6212 0.676863 8.64182L0.901863 8.65245H2.92499L0.227488 11.3481L0.239363 11.5724C0.245419 11.7463 0.317143 11.9114 0.440081 12.0344C0.563019 12.1575 0.728031 12.2294 0.901863 12.2356L1.12686 12.2462H4.49686L4.48499 12.0212C4.45499 11.6518 4.19311 11.3818 3.82249 11.3581ZM6.51999 7.75432H6.51686C6.21574 7.74419 5.91567 7.79474 5.63448 7.90296C5.3533 8.01118 5.09676 8.17486 4.88014 8.38426C4.66351 8.59366 4.49123 8.84449 4.37353 9.12185C4.25584 9.3992 4.19515 9.69739 4.19506 9.99868C4.19498 10.3 4.25551 10.5982 4.37305 10.8756C4.49058 11.153 4.66273 11.404 4.87924 11.6135C5.09575 11.823 5.35219 11.9868 5.63332 12.0952C5.91444 12.2036 6.21449 12.2543 6.51561 12.2443C7.09808 12.2254 7.65038 11.9808 8.05588 11.5622C8.46139 11.1437 8.68835 10.5839 8.68883 10.0011C8.68932 9.41836 8.46329 8.85821 8.05849 8.43898C7.65369 8.01974 7.1018 7.77424 6.51936 7.75432H6.51999ZM7.47061 10.9531C7.34629 11.0819 7.19757 11.1846 7.03312 11.2553C6.86867 11.326 6.69178 11.3633 6.51278 11.3649C6.33378 11.3665 6.15626 11.3324 5.99056 11.2647C5.82486 11.197 5.67431 11.0969 5.5477 10.9704C5.42108 10.8438 5.32093 10.6934 5.25309 10.5277C5.18525 10.3621 5.15108 10.1845 5.15258 10.0055C5.15407 9.82655 5.1912 9.64964 5.26179 9.48514C5.33238 9.32064 5.43503 9.17185 5.56374 9.04745L5.56436 9.04682C5.81862 8.80124 6.15916 8.66534 6.51265 8.6684C6.86613 8.67147 7.20427 8.81325 7.45423 9.06321C7.70419 9.31317 7.84597 9.65131 7.84903 10.0048C7.8521 10.3583 7.7162 10.6988 7.47061 10.9531ZM18.1975 7.75495C17.9433 7.75491 17.692 7.80889 17.4602 7.91329C17.2285 8.0177 17.0215 8.17016 16.8531 8.36057L16.8512 8.36245C16.6831 8.17082 16.4759 8.01732 16.2436 7.91222C16.0114 7.80713 15.7593 7.75287 15.5044 7.75307H15.5C15.125 7.75307 14.7775 7.86807 14.49 8.06557L14.4962 8.06182C14.3212 7.86745 13.9294 7.7537 13.7062 7.7537V12.2468L13.9312 12.2362C14.3062 12.2112 14.5787 11.9456 14.5937 11.5731L14.6044 11.3481V9.77557L14.6162 9.55057C14.6244 9.38245 14.6494 9.23245 14.7262 9.10057C14.7856 8.99814 14.8646 8.90844 14.9587 8.83662C15.0528 8.7648 15.1602 8.71229 15.2746 8.68209C15.3891 8.65189 15.5084 8.6446 15.6257 8.66065C15.743 8.67669 15.856 8.71575 15.9581 8.77557L15.9537 8.77307C16.09 8.85307 16.2006 8.9637 16.2781 9.09557L16.2806 9.09995C16.3581 9.23307 16.3806 9.38245 16.3906 9.54995L16.4025 9.77557V11.3481L16.4131 11.5724C16.4199 11.746 16.4918 11.9107 16.6146 12.0336C16.7374 12.1565 16.902 12.2286 17.0756 12.2356L17.3006 12.2462V9.77557L17.3106 9.55057C17.3187 9.3837 17.3437 9.23057 17.4225 9.09807C17.5014 8.96232 17.6145 8.84962 17.7506 8.77122C17.8866 8.69283 18.0409 8.65147 18.1979 8.65128C18.3549 8.65109 18.5092 8.69207 18.6455 8.77014C18.7817 8.84821 18.8951 8.96063 18.9744 9.0962L18.9769 9.10057C19.0537 9.2337 19.0769 9.3862 19.0862 9.55057L19.0981 9.77557V11.3481L19.1087 11.5724C19.1319 11.9418 19.4006 12.2143 19.7719 12.2356L19.9969 12.2462V9.55057C19.9962 9.07428 19.8065 8.61772 19.4695 8.28116C19.1325 7.94461 18.6757 7.75557 18.1994 7.75557H18.1975V7.75495ZM9.64749 8.41182C9.43011 8.61829 9.25624 8.86617 9.13614 9.14086C9.01604 9.41555 8.95212 9.71151 8.94816 10.0113C8.94419 10.3111 9.00026 10.6086 9.11306 10.8864C9.22586 11.1641 9.39311 11.4165 9.60496 11.6287C9.81681 11.8408 10.069 12.0084 10.3466 12.1216C10.6242 12.2348 10.9217 12.2913 11.2214 12.2877C11.5212 12.2842 11.8173 12.2206 12.0921 12.1009C12.367 11.9812 12.6151 11.8077 12.8219 11.5906L12.8225 11.5899C13.2265 11.1653 13.4485 10.5995 13.4412 10.0134C13.4339 9.42728 13.1979 8.86722 12.7835 8.45271C12.369 8.0382 11.809 7.80204 11.2229 7.79464C10.6368 7.78723 10.071 8.00916 9.64624 8.41307L9.64749 8.41245V8.41182ZM12.1881 10.9531C12.0638 11.0818 11.915 11.1845 11.7505 11.2552C11.586 11.3258 11.4091 11.363 11.2301 11.3646C11.0511 11.3661 10.8736 11.332 10.708 11.2642C10.5423 11.1964 10.3918 11.0963 10.2652 10.9697C10.1386 10.8432 10.0385 10.6927 9.97073 10.527C9.90294 10.3613 9.86883 10.1838 9.87038 10.0048C9.87194 9.82579 9.90912 9.64889 9.97977 9.48442C10.0504 9.31994 10.1531 9.17119 10.2819 9.04682C10.5347 8.79404 10.8777 8.65206 11.2352 8.65212C11.5928 8.65218 11.9356 8.79427 12.1884 9.04714C12.4412 9.3 12.5832 9.64293 12.5831 10.0005C12.5831 10.358 12.441 10.7009 12.1881 10.9537V10.9531Z"/></svg>