<svg width="234" height="234" viewBox="0 0 234 234" fill="none" xmlns="http://www.w3.org/2000/svg">
<path d="M58.0889 179.544C71.0723 179.505 172.929 178.058 176.687 180.762C178.141 181.803 178.944 183.071 178.996 184.887C179.071 187.248 177.586 188.949 176.102 190.584C138.407 191.638 99.8485 190.129 62.0635 190.683C54.7661 190.789 52.4189 184.977 58.0889 179.544Z" fill="white"/>
<path d="M59.2207 157.185C96.8857 156.563 135.601 157.299 173.326 157.326C177.444 157.328 179.124 160.588 178.644 164.39C176.919 166.866 176.693 167.242 173.948 168.439C138.413 169.893 101.409 167.695 65.7314 168.618C62.2289 168.708 58.0359 168.544 55.5459 165.871C53.6936 161.587 55.3059 159.06 59.2207 157.185Z" fill="white"/>
<path d="M111.924 43.0795C120.294 42.7007 128.611 44.6045 135.983 48.5863C149.798 56.0926 155.438 66.8172 159.721 81.0922C170.266 80.8124 178.186 82.3924 186.188 89.9945C192.953 96.4625 196.831 105.374 196.966 114.729C197.116 123.724 194.318 131.915 188.033 138.44C179.011 147.808 167.641 146.62 155.716 146.523C144.788 146.434 133.726 146.439 122.738 146.402L82.9365 146.488C76.644 146.512 63.7734 146.883 58.3359 145.871C54.4886 145.129 50.8735 143.5 47.7686 141.11C41.7311 136.509 38.1989 129.882 37.2539 122.391C36.2639 114.223 38.5589 105.995 43.6514 99.5277C50.1689 91.1362 57.3161 88.9632 67.2686 87.6068C69.5637 62.2576 87.3089 46.312 111.924 43.0795Z" fill="white"/>
</svg>
