<svg width="234" height="234" viewBox="0 0 234 234" fill="none" xmlns="http://www.w3.org/2000/svg">
<path d="M99.6794 163.863C101.226 164.155 101.349 164.454 102.545 165.472C105.128 171.437 104.493 183.871 99.7233 188.95C97.3286 191.498 94.5735 191.325 91.4176 191.204C78.88 182.608 92.9998 171.181 99.6794 163.863Z" fill="white"/>
<path d="M132.225 164.001C133.533 164.155 133.866 164.601 134.935 165.408C136.277 168.664 136.784 176.493 136.143 179.987C134.576 188.524 131.956 192.119 123.224 190.828C111.665 182.48 126.1 170.551 132.225 164.001Z" fill="white"/>
<path d="M67.3571 163.941C68.7551 164.119 68.7409 164.316 69.8561 165.248C73.111 173.524 72.6366 192.64 58.7829 190.953C46.2363 182.706 60.934 170.688 67.3571 163.941Z" fill="white"/>
<path d="M164.749 163.968C166.283 164.342 165.998 164.341 167.343 165.277C170.827 173.788 170.056 192.524 156.145 190.955C143.929 182.346 158.142 170.902 164.749 163.968Z" fill="white"/>
<path d="M109.047 42.9409C135.502 40.7968 152.66 55.8298 159.389 80.5131C160.216 80.4569 161.043 80.4098 161.87 80.3715C171.22 79.9515 179.665 83.0113 186.534 89.4448C193.546 96.1138 197.608 105.306 197.816 114.983C198.025 124.511 194.366 133.719 187.674 140.502C176.202 152.012 164.033 150.923 149.194 150.872L126.387 150.76L86.5104 150.874C73.4546 150.904 60.4234 152.508 49.2057 144.561C42.3051 139.716 37.7143 132.233 36.5202 123.885C35.2602 115.473 37.4876 106.91 42.6881 100.179C49.1644 91.7591 56.894 88.6988 67.0407 87.3852C69.9237 62.6137 84.7131 47.5178 109.047 42.9409Z" fill="white"/>
</svg>
