<svg width="234" height="234" viewBox="0 0 234 234" fill="none" xmlns="http://www.w3.org/2000/svg">
<path d="M114.891 172.232C117.215 172.311 117.425 172.273 119.57 173.059C121.775 176.487 120.98 179.752 120.83 184.211C123.837 182.451 130.407 177.62 133.062 181.772C131.63 186.586 127.753 187.558 123.508 189.66C127.543 191.753 131.765 192.989 132.86 197.715C130.34 201.969 123.583 196.66 120.846 194.883L120.718 206.702C118.4 207.041 118.055 207.236 115.933 206.478C113.57 203.789 114.373 198.942 114.471 195.141C111.523 197.113 105.845 201.627 102.695 198.159C103.76 193.138 107.502 192.041 111.71 189.702C108.297 187.9 101.856 185.437 103.085 180.767C107.51 179.156 110.698 182.03 114.485 184.288C114.493 180.189 114.681 176.327 114.891 172.232Z" fill="white"/>
<path d="M161.721 143.762C164.105 143.753 164.713 143.537 166.588 144.783C168.343 147.896 167.54 152.615 167.405 156.497C171.193 153.849 174.155 150.787 178.925 152.022C181.55 156.27 173.48 159.84 170.487 161.504C173.9 163.239 180.943 165.917 179.008 170.716C174.118 172.189 171.455 169.307 167.45 166.619L167.352 179.045C164.975 178.949 164.51 179.086 162.516 177.968C160.641 175.127 161.352 170.703 161.42 166.953C160.205 167.732 158.975 168.496 157.737 169.244C155.007 170.884 151.79 172.697 149.825 169.124C150.935 164.336 154.55 163.516 158.713 161.366C155.608 159.748 147.996 156.714 149.855 152.281C154.573 150.849 157.581 153.645 161.556 156.049C161.473 151.885 161.601 147.916 161.721 143.762Z" fill="white"/>
<path d="M67.1826 143.768C69.5225 143.775 70.2124 143.551 72.0273 144.812C73.7522 147.867 73.0106 152.544 72.913 156.363C75.8157 154.36 82.0098 149.105 85.0097 153.13C83.9895 158.008 79.9847 159.272 75.8974 161.564C79.3024 163.289 86.4497 165.866 84.4247 170.704C79.7224 172.303 76.7672 169.233 72.9648 166.644L72.9804 178.304C70.4754 178.939 69.5748 179.063 67.5273 177.708C66.2673 174.783 66.755 170.332 66.8525 166.982C63.7999 168.975 57.6947 173.958 54.7773 169.658C55.9623 164.601 59.6001 163.76 63.9423 161.528L63.3954 161.213C59.0904 158.738 55.9322 157.724 54.6347 152.927L55.3847 151.784C60.3271 150.968 62.585 153.298 66.8974 156.109C66.8449 151.723 66.9276 148.146 67.1826 143.768Z" fill="white"/>
<path d="M110.698 27.1703C120.328 26.3227 129.972 28.6184 138.192 33.7143C150.005 40.9783 156.418 51.1854 159.53 64.4682C170.39 64.7217 178.685 66.6522 186.665 74.7367C193.302 81.4328 197 90.5005 196.933 99.9311C196.97 109.266 193.25 118.223 186.62 124.789C182.42 128.912 177.238 131.886 171.56 133.431C163.543 135.606 133.138 134.78 122.968 134.772C111.253 134.806 69.8753 135.626 61.2802 133.68C56.8179 132.646 52.6331 130.661 49.0107 127.861C42.2308 122.595 38.2703 115.034 37.2802 106.548C36.3127 98.4268 38.6531 90.2557 43.7831 83.8852C50.0006 76.0528 57.6129 72.667 67.3027 71.559C68.0452 62.19 71.4426 53.2267 77.0976 45.7182C85.6026 34.56 97.0107 28.9332 110.698 27.1703Z" fill="white"/>
</svg>
