<svg width="234" height="234" viewBox="0 0 234 234" fill="none" xmlns="http://www.w3.org/2000/svg">
<path d="M78.887 159.902C81.0589 160.061 80.9578 160.015 82.8763 161.024C84.911 164.308 84.1186 168.414 83.9671 172.548C86.8943 170.555 93.1881 165.316 96.0696 169.489C95.1037 174.278 91.0896 175.578 87.0921 177.831C90.5556 179.671 97.1257 182.164 95.5726 186.976C90.6611 188.511 88.0495 185.686 84.0169 183.004C84.0304 186.871 84.379 192.254 83.1243 195.752C80.975 195.423 80.8601 195.416 78.9671 194.397C77.1491 191.297 77.8304 187.17 77.9017 183.28C74.034 185.743 70.8942 188.775 66.2825 187.029C64.2133 182.428 71.7441 179.459 74.9886 177.777C71.6144 175.941 64.6969 173.108 66.0091 168.32C70.8263 166.94 73.6347 169.654 77.6292 172.2C77.702 168.667 77.4538 162.794 78.887 159.902Z" fill="white"/>
<path d="M150.229 159.86C152.599 160.013 153.064 159.886 155.022 161.06C157.054 164.158 156.206 168.493 156.041 172.471C157.489 171.473 158.959 170.502 160.451 169.557C163.196 167.829 164.201 167.507 167.404 168.219L168.154 169.454C166.894 174.341 163.181 175.457 159.019 177.794C162.191 179.441 170.089 182.59 167.472 187.104C162.439 188.407 160.316 185.882 156.154 183.071L156.057 195.288C153.62 195.224 153.297 195.319 151.115 194.387C149.885 192.577 149.824 192.414 149.854 190.233L149.959 183.302C146.457 185.557 141.942 189.513 138.124 186.271C138.972 181.104 142.722 180.182 147.072 177.865C143.734 176.014 136.827 173.179 138.522 168.467C143.254 167.044 146.089 169.909 149.996 172.424C149.944 168.079 150.049 164.203 150.229 159.86Z" fill="white"/>
<path d="M111.171 38.5596C135.561 35.5461 152.631 54.8226 158.849 76.376C160.379 76.2717 161.917 76.2023 163.447 76.167C171.779 76.0133 180.232 79.9345 186.112 85.7461C192.951 92.6139 196.754 101.934 196.679 111.627C196.687 120.898 192.967 129.783 186.367 136.289C172.117 150.2 144.787 146.298 124.469 146.258L88.8802 146.321C81.6067 146.35 69.971 146.739 63.2015 145.49C58.6671 144.653 54.3598 142.868 50.5618 140.251C43.8232 135.664 39.2309 128.54 37.8343 120.507C36.3051 112.169 38.2197 103.568 43.1419 96.669C49.2304 88.0974 56.7635 84.721 66.7513 83.0293C68.6713 57.719 86.4536 41.3466 111.171 38.5596Z" fill="white"/>
</svg>
