<svg width="234" height="234" viewBox="0 0 234 234" fill="none" xmlns="http://www.w3.org/2000/svg">
<path d="M124.25 164.06C126.222 167.179 126.387 177.574 125.54 181.57C123.732 190.096 120.627 193.523 112.062 191.857C99.8603 182.211 114.935 170.321 122.15 162.747L124.25 164.06Z" fill="white"/>
<path d="M86.0447 164.028C87.9047 166.934 88.3629 175.94 87.7479 179.524C86.1504 188.848 83.6222 193.334 73.8348 192.031C73.5349 191.794 73.2427 191.55 72.9578 191.3C62.2105 181.905 77.0751 169.78 83.7801 162.59L86.0447 164.028Z" fill="white"/>
<path d="M162.44 164.112C166.34 171.437 165.957 195.716 149.809 191.718C138.2 181.907 152.982 170.231 160.16 162.615L162.44 164.112Z" fill="white"/>
<path d="M111.41 41.7473C135.837 41.2177 151.865 56.4638 158.067 79.1379C158.93 79.1071 159.8 79.0862 160.67 79.0734C170.412 78.9444 178.722 81.6279 185.75 88.6203C192.575 95.4717 196.392 104.756 196.362 114.425C196.355 123.657 192.672 132.504 186.133 139.018C174.358 150.547 162.042 149.329 147.147 149.276L123.724 149.217C108.049 149.084 79.0849 151.077 64.7449 148.693C60.2599 147.95 55.9548 146.342 52.0848 143.958C37.34 134.867 33.4402 115.839 42.4324 100.843C47.4874 92.4229 56.9374 88.2997 66.3123 86.3117C71.0673 60.7485 84.7625 44.883 111.41 41.7473Z" fill="white"/>
</svg>
