<svg width="234" height="234" viewBox="0 0 234 234" fill="none" xmlns="http://www.w3.org/2000/svg">
<path d="M107.396 62.8869C133.819 60.7406 151.909 74.9626 158.554 100.224C159.371 100.185 160.181 100.155 160.999 100.131C170.689 99.8694 178.684 102.527 185.786 109.368C192.671 116.109 196.601 125.315 196.691 134.954C196.924 144.449 193.294 153.631 186.634 160.402C172.399 174.636 148.256 170.928 128.449 170.796L87.4929 170.892C79.9066 170.904 70.1476 171.456 62.8613 170.054C50.1083 167.599 39.8723 157.012 37.7423 144.363C36.3413 136.13 38.2854 127.677 43.1439 120.885C49.2849 112.315 56.6821 109.117 66.6758 107.436C69.2701 82.7353 83.0071 67.8194 107.396 62.8869Z" fill="white"/>
</svg>
