<svg width="234" height="234" viewBox="0 0 234 234" fill="none" xmlns="http://www.w3.org/2000/svg">
<path d="M133.188 101.186C152.308 100.782 163.605 110.584 171.32 127.129C181.322 127.028 188.76 128.584 196.281 135.859C202.731 142.204 206.423 150.836 206.554 159.884C206.671 169.016 203.089 177.806 196.623 184.253C192.558 188.273 187.519 191.168 181.999 192.655C173.956 194.797 140.983 193.918 130.309 193.875C123.421 193.806 116.198 194.217 109.377 193.949C92.4987 193.284 71.6166 198.346 60.7161 181.887C56.8447 175.914 55.4741 168.657 56.8997 161.683C58.3877 154.589 62.6813 148.398 68.8021 144.518C77.016 139.265 84.1206 139.651 93.1917 141.59C95.7111 117.567 108.988 103.5 133.188 101.186Z" fill="white"/>
<path d="M95.0091 74.105C110.068 72.7284 123.182 80.7306 130.305 93.7485C110.505 97.2834 97.1744 106.057 89.5814 125.228L87.1419 133.081C80.5475 133 77.7288 133.396 71.3187 134.936C66.1429 129.205 63.1234 123.928 61.8109 116.193C60.1835 106.633 62.5015 96.8203 68.2366 89.0005C75.1719 79.6061 83.868 75.8439 95.0091 74.105Z" fill="white"/>
<path d="M30.0745 105.381C36.1315 105.045 49.3488 102.845 51.5247 109.819C51.0905 112.726 50.6609 113.107 48.7718 115.408C42.6129 115.637 19.7764 117.958 30.0745 105.381Z" fill="white"/>
<path d="M51.4232 57.8413C56.3058 59.7531 66.5832 69.0784 66.1419 74.8892C65.1024 77.3625 64.273 77.6291 61.9818 79.1558C56.8577 77.3506 46.66 68.0454 47.2113 61.9878C48.3183 59.5077 49.0479 59.2622 51.4232 57.8413Z" fill="white"/>
<path d="M141.966 58.5718C145.63 58.3737 147.936 59.1165 148.856 62.7632C147.862 68.205 140.466 74.5068 136.407 78.521C134.561 78.6372 131.927 78.3883 130.604 77.0396C125.791 72.1319 138.732 61.701 141.966 58.5718Z" fill="white"/>
<path d="M96.2845 39.813C97.3023 40.0005 100.041 40.4756 100.663 41.27C104.69 46.4089 104.419 59.5997 99.8324 64.1323C98.2251 64.004 95.1192 63.6438 94.3197 62.2808C90.6508 56.028 91.1157 44.4919 96.2845 39.813Z" fill="white"/>
</svg>
