<svg width="234" height="234" viewBox="0 0 234 234" fill="none" xmlns="http://www.w3.org/2000/svg">
<path d="M94.6228 180.168C95.801 180.751 96.4434 181.47 97.3982 182.361C100.512 191.657 99.5683 208.835 85.6648 207.197C74.619 197.638 87.5428 187.739 94.6228 180.168Z" fill="white"/>
<path d="M147.745 147.919C149.574 148.087 150.13 148.567 151.701 149.471C154.353 153.739 151.957 159.562 151.982 166.66L159.055 162.537C160.225 158.574 159.878 156.993 164.147 156.406C171.326 159.017 171.633 167.415 163.207 168.485C161.871 168.655 156.815 171.743 155.313 172.666C162.437 177.555 166.225 175.923 169.18 179.646C170.341 184.267 167.78 186.645 163.829 188.417C163.233 188.383 162.526 188.342 161.707 188.296C157.496 182.436 158.386 182.052 152.02 178.414C151.568 185.912 155.147 190.556 151.999 196.024C149.195 196.848 148.108 196.857 145.573 195.657C142.713 191.356 145.649 186.501 145.474 178.572C144.466 179.165 138.682 182.621 138.327 183.306C137.309 185.275 138.283 186.963 135.701 188.666C131.529 188.537 128.491 186.265 128.156 181.946C129.757 177.621 136.35 176.448 142.116 172.612C137.053 169.133 129.569 167.913 127.701 162.863C128.197 159.551 132.282 156.438 135.644 156.478C139.572 162.456 139.028 163.136 145.431 166.618C145.612 160.863 144.853 158.632 144.327 153.096C144.106 150.768 146.06 149.532 147.745 147.919Z" fill="white"/>
<path d="M78.3767 147.151C82.7273 147.787 82.8505 153.593 82.7478 157.256C82.495 166.279 81.4192 174.463 70.4812 174.435C57.7922 165.784 71.6079 154.538 78.3767 147.151Z" fill="white"/>
<path d="M113.184 147.143C114.688 147.317 114.935 147.695 116.164 148.597C119.66 157.092 118.805 175.328 105.157 174.197C92.3811 166.202 106.754 154.269 113.184 147.143Z" fill="white"/>
<path d="M110.646 26.9382C134.429 24.3899 153.64 42.1063 158.819 64.4587C160.006 64.3912 161.194 64.3399 162.382 64.3054C171.662 64.0601 180.041 67.216 186.741 73.7019C193.668 80.4977 197.581 89.7879 197.605 99.4929C197.693 108.788 194.04 117.726 187.468 124.299C175.875 135.89 163.597 134.823 148.737 134.76L125.571 134.631L88.4372 134.732C74.6441 134.807 61.1898 136.602 49.3249 128.291C42.701 123.7 38.2139 116.626 36.8826 108.677C35.3901 100.365 37.3461 91.8025 42.3005 84.9646C48.4273 76.4958 56.2357 73.025 66.2077 71.4451C70.5488 46.1544 84.3545 30.0523 110.646 26.9382Z" fill="white"/>
</svg>
