<svg width="234" height="234" viewBox="0 0 234 234" fill="none" xmlns="http://www.w3.org/2000/svg">
<path d="M114.266 171.111C116.859 171.066 117.031 171.008 119.413 171.892C124.627 176.525 123.606 192.364 119.177 197.203C117.664 197.165 115.212 197.05 114.176 196.076C109.028 191.234 110.269 175.45 114.266 171.111Z" fill="white"/>
<path d="M72.9839 153.966C90.0155 155.614 69.4472 172.375 65.4829 176.142C61.4968 175.653 59.5888 174.351 58.7368 170.63C59.9151 164.931 68.4561 158.162 72.9839 153.966Z" fill="white"/>
<path d="M158.002 153.907C163.684 154.644 174.436 164.895 174.761 170.94C174.169 173.58 173.306 174.052 171.342 175.921C165.45 175.672 155.018 165.081 154.373 159.075C155.472 155.62 155.172 156.607 158.002 153.907Z" fill="white"/>
<path d="M109.608 75.1211C132.674 71.0881 154.66 86.4659 158.789 109.521C162.917 132.576 147.635 154.631 124.603 158.856C101.435 163.107 79.2265 147.71 75.0737 124.519C70.9204 101.328 86.4055 79.179 109.608 75.1211Z" fill="white"/>
<path d="M174.584 111.555C180.711 111.375 196.039 109.234 197.345 116.984C196.315 119.91 196.075 120.2 193.777 122.294C187.704 122.532 172.398 124.824 171.118 117.085C171.887 114.17 172.528 113.687 174.584 111.555Z" fill="white"/>
<path d="M40.1167 111.493C46.2133 111.344 72.0952 109.038 59.7017 122.191C53.6158 122.481 27.3348 125.036 40.1167 111.493Z" fill="white"/>
<path d="M168.104 58.6289C172.266 58.7594 174.353 59.6432 175.027 63.8057C173.426 69.6075 165.666 76.067 161.18 80.4248C157.288 80.1525 155.73 79.906 154.077 76.4229C154.319 70.1799 163.531 62.9056 168.104 58.6289Z" fill="white"/>
<path d="M61.8843 58.6484C68.2773 58.9418 78.3238 68.6949 79.3745 75.0654C79.1075 77.7599 78.1414 78.4261 76.2554 80.3643C69.9743 80.0957 59.8096 69.9669 58.8042 63.7988C59.5677 60.5025 59.4258 61.3896 61.8843 58.6484Z" fill="white"/>
<path d="M115.961 36.7969C125.457 39.3843 122.683 51.2606 121.753 58.8555C121.42 61.5791 119.615 62.5325 117.412 64.002C112.32 62.4056 111.311 59.1354 111.074 54.1992C110.75 47.486 110.058 40.796 115.961 36.7969Z" fill="white"/>
</svg>
