<svg width="234" height="234" viewBox="0 0 234 234" fill="none" xmlns="http://www.w3.org/2000/svg">
<path d="M73.2435 180.694C78.006 183.981 81.6888 203.23 68.0989 204.511C56.4066 197.026 67.0185 188.098 73.2435 180.694Z" fill="white"/>
<path d="M120.157 131.522C116.122 140.469 112.003 149.379 107.811 158.251L125.721 158.605C119.496 168.227 110.691 179.144 103.618 188.36C99.7411 193.468 95.9161 198.959 91.2513 203.315C94.1988 192.449 97.7234 181.453 101.038 170.673L82.6937 170.526C87.5912 157.405 92.6984 144.364 98.0159 131.408L120.157 131.522Z" fill="white"/>
<path d="M154.934 164.092C158.361 165.843 165.171 176.445 166.371 180.272C169.476 190.174 165.816 195.74 156.261 198.348C152.931 198.127 149.061 197.196 146.421 195.095C135.906 186.72 149.271 170.945 154.934 164.092Z" fill="white"/>
<path d="M107.354 29.6557C133.686 27.8013 151.641 41.4271 158.354 66.7465C159.059 66.721 159.764 66.6993 160.461 66.6821C170.811 66.43 178.791 68.5753 186.456 76.0336C193.356 82.7942 197.317 92.0092 197.459 101.671C197.609 111.108 193.897 120.196 187.169 126.819C172.364 141.4 145.807 137.387 125.407 137.117C127.251 133.202 127.986 131.861 128.788 127.645C128.361 127.178 126.674 125.432 126.036 125.336C117.914 124.122 101.811 123.5 94.3411 125.544C91.6787 126.273 88.9186 134.761 87.9437 137.274C81.3662 137.349 74.7884 137.458 68.2034 137.306C52.7161 136.947 39.6142 126.186 37.0042 110.794C35.5268 102.37 37.5891 93.7089 42.6966 86.8501C49.0191 78.2967 56.429 75.4367 66.4339 73.8276C68.3914 49.7145 84.2539 34.4674 107.354 29.6557Z" fill="white"/>
</svg>
